<svg width="309" height="543" viewBox="0 0 309 543" fill="none" xmlns="http://www.w3.org/2000/svg">
<g clip-path="url(#clip0_43_2356)">
<path d="M148.523 447.718C138.516 448.693 128.022 450.046 119.907 456.055C118.717 456.924 117.582 458.005 117.365 459.468C116.986 462.662 121.314 463.963 124.559 464.069C182.819 465.91 241.078 466.075 299.338 464.612C300.095 460.605 295.606 457.789 291.819 456.436C246.867 440.029 195.261 443.168 148.523 447.718Z" fill="url(#paint0_linear_43_2356)"/>
<path d="M148.512 447.718C138.505 448.693 128.011 450.046 119.896 456.055C118.706 456.924 117.57 458.005 117.354 459.468C116.975 462.662 121.303 463.963 124.548 464.069C182.808 465.91 241.067 466.075 299.327 464.612C300.084 460.605 295.595 457.789 291.808 456.436C246.856 440.029 195.25 443.168 148.512 447.718Z" fill="url(#paint1_linear_43_2356)"/>
<path d="M116.25 369.083C112.734 376.393 114.303 387.926 115.871 397.944C117.061 405.47 119.117 413.485 125.067 418.196C128.421 420.849 132.586 422.15 136.752 423.177C155.793 427.781 176.078 427.129 194.741 421.336C198.473 420.145 202.26 418.737 205.343 416.355C210.266 412.51 212.916 406.445 214.864 400.489C217.515 392.367 224.06 374.064 215.946 369.57C208.805 365.617 185.869 370.491 177.322 370.437C170.831 370.437 164.34 370.328 157.956 368.812C150.654 367.133 143.514 363.614 136.157 362.26C124.797 360.148 119.009 363.343 116.25 369.083Z" fill="#222222"/>
<path d="M162.68 433.745C162.734 433.096 162.788 432.447 162.842 431.743C157.216 427.897 147.317 429.144 141.367 431.094C134.984 433.151 134.983 437.158 135.037 443.765C135.092 447.501 135.416 451.776 138.283 454.159C140.501 456.055 143.638 456.271 146.506 456.488C149.102 456.652 151.698 456.814 154.295 456.923C156.08 457.03 158.082 457.085 159.488 455.893C160.895 454.702 161.111 452.645 161.273 450.856C161.76 445.173 162.193 439.487 162.68 433.745Z" fill="#222222"/>
<path d="M167.88 433.745C167.826 433.096 167.772 432.447 167.718 431.743C173.344 427.897 183.243 429.144 189.194 431.094C195.577 433.151 195.577 437.158 195.523 443.765C195.468 447.501 195.144 451.776 192.277 454.159C190.059 456.055 186.922 456.271 184.055 456.488C181.458 456.652 178.862 456.814 176.265 456.923C174.48 457.03 172.479 457.085 171.072 455.893C169.666 454.702 169.449 452.645 169.287 450.856C168.8 445.173 168.367 439.487 167.88 433.745Z" fill="#222222"/>
<path d="M31.5909 162.184C31.7532 163.537 31.9156 164.945 31.4288 166.245C31.0501 167.274 30.2926 168.086 29.5353 168.898C26.3437 172.201 22.8818 175.288 19.1493 177.995C14.9299 177.399 10.8187 176.262 6.9239 174.53C6.22068 174.205 5.46342 173.826 4.97658 173.176C4.59794 172.689 4.48981 172.039 4.38161 171.443C2.92108 164.512 1.46055 157.527 0 150.596C2.16377 149.134 4.54381 147.943 6.97803 147.022C7.95174 151.192 8.92532 155.415 9.89903 159.585C10.8186 163.592 12.3335 168.249 16.2824 169.385C18.6626 167.328 21.0425 165.216 23.4226 163.158C23.8554 162.779 24.2341 162.4 24.5045 161.913C24.775 161.317 24.6669 160.613 24.5587 159.909C23.9636 155.848 23.044 151.787 21.7998 147.834C23.8013 147.455 25.7489 147.076 27.7504 146.697C30.2387 151.408 30.9417 156.877 31.5909 162.184Z" fill="#222222"/>
<path d="M13.08 178.111C13.0259 178.328 13.0801 178.544 13.1342 178.761C13.7292 181.252 14.3243 183.743 14.9194 186.233C18.8142 185.313 22.6548 184.068 26.3873 182.606C26.0087 180.44 25.4136 178.328 24.6021 176.324C24.4398 175.891 24.1692 175.404 23.7364 175.241C23.466 175.133 23.1416 175.187 22.8711 175.241C19.7877 175.783 16.7585 176.541 13.8374 177.516C13.5128 177.678 13.1882 177.84 13.08 178.111Z" fill="#222222"/>
<path d="M13.9056 188.611C13.5269 193.214 19.8557 201.715 21.8032 205.506C24.3997 210.65 26.9963 215.848 30.6747 220.234C34.353 224.674 39.2217 228.302 44.8475 229.494C48.0388 230.143 51.3388 229.981 54.5843 229.548C64.3214 228.302 73.7878 224.783 82.0101 219.368C82.6591 218.935 83.3623 218.447 83.633 217.689C83.9033 216.931 83.633 216.065 83.3623 215.253C82.3346 212.166 81.3068 208.755 79.7381 205.939C76.9794 200.958 78.7104 201.824 74.2746 202.203C70.8668 202.474 65.9981 206.047 62.3739 206.968C58.1546 207.997 53.773 208.538 49.4994 209.08C46.7946 209.404 43.7655 209.675 41.4936 208.159C40.2494 207.293 39.3839 206.047 38.5726 204.747C33.7039 197.167 29.2683 189.315 25.3735 181.247C24.7244 179.839 14.771 185.687 14.1218 187.907C13.9596 188.124 13.9056 188.341 13.9056 188.611Z" fill="#9CB9E7"/>
<g opacity="0.15">
<path opacity="0.15" d="M54.5346 226.565C52.4791 221.583 51.5594 216.602 51.2891 211.295C51.2349 210.266 49.8284 210.104 49.6662 211.187C48.7468 216.873 49.6662 222.666 51.6678 228.027C52.3168 229.976 55.292 228.515 54.5346 226.565Z" fill="#222222"/>
<path opacity="0.15" d="M45.1762 226.95C43.7697 221.86 44.311 217.799 45.9878 212.871C46.2042 212.221 45.2303 211.734 44.9058 212.33C43.3913 214.821 41.7142 216.824 41.2274 219.802C40.7407 222.618 40.8487 225.38 41.8765 228.087C42.5258 229.982 45.7171 228.899 45.1762 226.95Z" fill="#222222"/>
</g>
<path d="M95.8154 183.638C88.4587 187.212 86.6735 196.796 86.0245 204.973C81.8051 255.223 83.428 306.014 90.7848 355.885C91.7045 361.95 93.0029 368.556 97.7632 372.401C100.846 374.892 104.904 375.758 108.798 376.462C148.449 383.718 189.399 383.772 229.05 376.624C230.348 376.408 231.754 376.137 232.836 375.27C234.297 374.133 234.838 372.238 235.271 370.451C249.498 314.732 246.144 256.252 242.519 198.908C242.411 196.905 242.249 194.847 241.329 193.114C240.193 191.002 238.084 189.594 235.92 188.511C223.586 182.014 209.143 181.472 195.241 181.255C165.381 180.714 135.521 180.985 105.661 181.96C102.307 182.014 98.7906 182.176 95.8154 183.638Z" fill="#0062F4"/>
<path d="M116.425 167.714C149.044 174.374 182.366 173.832 214.877 166.143C221.747 164.519 229.158 162.137 233.81 154.393C241.816 141.018 236.623 118.33 226.562 108.421C216.5 98.5117 203.68 97.8076 191.617 97.4285C172.251 96.8329 152.777 96.2373 133.627 100.244C122.538 102.573 110.908 107.067 103.497 119.413C96.0864 131.759 95.5993 154.068 105.066 162.84C108.366 165.927 112.477 166.902 116.425 167.714Z" fill="#0062F4"/>
<path d="M124.695 436.413C151.688 438.524 179.222 438.363 206.161 435.925C211.841 435.382 217.953 434.624 221.794 432.189C228.394 427.91 224.12 420.71 215.789 417.568C207.459 414.428 196.856 414.211 186.849 414.049C170.837 413.832 154.717 413.67 138.867 414.969C129.726 415.727 120.043 417.135 113.93 421.087C107.817 425.04 107.385 432.134 115.228 434.895C118.041 435.815 121.395 436.141 124.695 436.413Z" fill="#0062F4"/>
<path d="M134.871 151.518C156.4 154.388 178.309 154.171 199.784 150.814C204.328 150.11 209.196 149.081 212.226 145.724C217.527 139.93 214.065 130.129 207.465 125.851C200.866 121.574 192.373 121.249 184.421 121.086C171.655 120.816 158.835 120.545 146.176 122.332C138.874 123.361 131.193 125.256 126.324 130.616C121.455 135.977 121.131 145.616 127.352 149.352C129.57 150.76 132.275 151.193 134.871 151.518Z" fill="#222222"/>
<path d="M139.359 184.175C136.654 184.175 133.463 184.5 132.164 186.882C131.515 188.074 131.515 189.481 131.569 190.835C132.489 223.649 133.462 256.518 134.382 289.332C155.1 294.855 177.17 300.378 197.564 293.772C200.323 257.763 200.972 221.646 199.457 185.529C191.019 183.688 182.256 183.742 173.6 183.85C162.24 183.958 150.827 184.067 139.359 184.175Z" fill="#EBEBEB"/>
<path d="M201.296 185.524C201.242 184.766 200.755 183.954 199.998 183.791C190.694 181.896 181.281 181.95 171.869 182.058C161.05 182.167 150.231 182.275 139.412 182.329C132.217 182.546 129.729 185.578 129.892 192.672C130.216 203.393 130.487 214.115 130.811 224.89C131.406 246.333 132.055 267.83 132.65 289.273C132.65 290.085 133.192 290.789 133.949 291.006C154.775 296.583 176.791 301.998 198.05 295.446C198.862 295.175 199.295 294.526 199.349 293.713C202.107 257.759 202.756 221.641 201.296 185.524ZM195.941 292.414C176.088 298.099 155.641 293.118 136.221 287.919C135.734 270.7 135.247 253.481 134.76 236.261C134.49 227.435 134.273 218.609 134.003 209.729C133.895 205.289 133.732 200.902 133.624 196.462C133.57 194.567 133.516 192.672 133.462 190.777C133.354 187.04 136.383 186.011 139.466 185.903C149.095 185.795 158.724 185.741 168.353 185.632C178.198 185.524 188.151 185.199 197.888 186.986C199.132 222.183 198.537 257.325 195.941 292.414Z" fill="#7D7D7D"/>
<path opacity="0.2" d="M170.791 284.039C171.277 283.28 171.548 282.468 171.818 281.656C172.143 280.519 172.413 279.327 172.197 278.136C172.035 277.216 171.548 276.403 171.061 275.537C170.899 275.266 170.736 274.942 170.574 274.671C170.304 274.238 170.087 273.75 169.709 273.371C168.789 272.343 167.329 272.017 165.976 271.747C165.003 271.584 164.029 271.422 163.001 271.53C160.783 271.801 158.89 273.479 158.133 275.591C157.375 277.649 157.646 280.032 158.565 282.035C159.756 284.58 162.19 286.692 165.003 286.909C167.329 287.071 169.601 285.934 170.791 284.039Z" fill="#222222"/>
<path d="M169.209 283.711C169.695 282.953 169.966 282.14 170.236 281.328C170.561 280.191 170.832 279 170.615 277.808C170.453 276.888 169.966 276.076 169.533 275.209C169.371 274.938 169.209 274.614 169.046 274.343C168.776 273.91 168.56 273.422 168.181 273.043C167.261 272.014 165.801 271.69 164.448 271.419C163.474 271.256 162.501 271.094 161.473 271.202C159.255 271.473 157.362 273.152 156.604 275.264C155.847 277.375 156.118 279.704 157.037 281.707C158.227 284.252 160.662 286.364 163.475 286.58C165.747 286.797 168.019 285.606 169.209 283.711Z" fill="#9CB9E7"/>
<path opacity="0.2" d="M164.822 280.182C165.255 279.586 165.309 278.882 165.309 278.178C165.309 277.962 165.309 277.691 165.255 277.474C165.147 277.149 164.876 276.879 164.552 276.662C163.632 276.067 162.334 276.012 161.36 276.608C160.44 277.204 159.9 278.503 160.278 279.532C160.874 280.182 161.576 280.723 162.442 280.94C163.307 281.102 164.281 280.886 164.822 280.182Z" fill="#222222"/>
<path opacity="0.2" d="M171.278 362.974C171.765 362.216 172.036 361.403 172.306 360.591C172.631 359.454 172.901 358.263 172.685 357.071C172.523 356.151 172.036 355.339 171.603 354.472C171.441 354.202 171.278 353.876 171.116 353.606C170.846 353.173 170.629 352.685 170.251 352.306C169.331 351.277 167.87 350.953 166.518 350.682C165.544 350.52 164.571 350.357 163.543 350.465C161.325 350.736 159.432 352.415 158.674 354.526C157.917 356.584 158.187 358.967 159.107 360.97C160.297 363.515 162.732 365.627 165.545 365.843C167.762 366.06 170.088 364.923 171.278 362.974Z" fill="#222222"/>
<path d="M169.701 362.697C170.187 361.938 170.458 361.126 170.728 360.314C171.053 359.177 171.324 357.985 171.107 356.794C170.945 355.874 170.458 355.062 169.971 354.195C169.809 353.925 169.646 353.599 169.484 353.329C169.214 352.896 168.997 352.408 168.619 352.029C167.699 351 166.239 350.676 164.886 350.405C163.913 350.242 162.939 350.079 161.911 350.188C159.693 350.459 157.8 352.137 157.043 354.249C156.285 356.307 156.556 358.689 157.476 360.693C158.666 363.238 161.1 365.35 163.913 365.566C166.185 365.729 168.511 364.592 169.701 362.697Z" fill="#9CB9E7"/>
<path opacity="0.2" d="M165.323 359.168C165.756 358.572 165.756 357.868 165.81 357.164C165.81 356.948 165.81 356.677 165.756 356.46C165.648 356.135 165.377 355.864 165.053 355.648C164.133 355.052 162.835 354.998 161.861 355.594C160.942 356.189 160.401 357.489 160.779 358.518C161.374 359.168 162.078 359.709 162.943 359.926C163.755 360.088 164.782 359.872 165.323 359.168Z" fill="#222222"/>
<path d="M244.61 289.532C245.313 288.341 246.016 287.15 247.152 286.392C248.072 285.796 249.154 285.634 250.235 285.417C254.78 284.713 259.377 284.388 263.975 284.442C267.005 287.421 269.601 290.886 271.657 294.622C272.035 295.326 272.414 296.084 272.414 296.842C272.414 297.438 272.144 298.034 271.873 298.629C268.844 305.073 265.814 311.463 262.785 317.906C260.189 317.798 257.592 317.311 255.05 316.498C256.781 312.6 258.566 308.647 260.297 304.748C261.974 301.012 263.597 296.409 261.162 293.106C258.025 293.323 254.887 293.539 251.696 293.756C251.155 293.81 250.56 293.81 250.127 294.081C249.532 294.406 249.208 295.001 248.883 295.597C246.882 299.225 245.205 303.015 243.798 306.86C241.959 305.993 240.174 305.073 238.335 304.207C239.146 298.954 241.905 294.189 244.61 289.532Z" fill="#222222"/>
<path d="M269.008 288.082C269.17 287.973 269.278 287.757 269.386 287.54C270.414 285.212 271.442 282.829 272.47 280.501C268.792 278.876 265.005 277.523 261.11 276.44C260.082 278.389 259.325 280.393 258.73 282.504C258.622 282.937 258.513 283.479 258.784 283.858C258.946 284.129 259.217 284.237 259.487 284.4C262.246 285.862 265.113 287.053 268.088 288.028C268.359 288.136 268.737 288.244 269.008 288.082Z" fill="#222222"/>
<path d="M274.69 279.203C277.719 275.791 277.828 265.178 278.585 261.009C279.613 255.377 280.694 249.638 280.424 243.898C280.153 238.158 278.531 232.31 274.744 227.978C272.58 225.541 269.876 223.646 267.009 222.076C258.462 217.202 248.833 214.278 239.042 213.574C238.285 213.52 237.419 213.52 236.77 213.899C236.066 214.333 235.742 215.199 235.526 216.011C234.498 219.098 233.254 222.401 232.767 225.596C231.955 231.227 231.09 229.44 234.877 231.877C237.743 233.718 243.802 233.826 247.264 235.288C251.267 237.021 255.054 239.241 258.786 241.407C261.166 242.815 263.709 244.385 264.628 246.984C265.115 248.392 265.007 249.962 264.899 251.479C264.196 260.467 263.006 269.402 261.221 278.228C260.896 279.744 272.364 281.098 274.203 279.744C274.312 279.582 274.473 279.419 274.69 279.203Z" fill="#9CB9E7"/>
<g opacity="0.15">
<path opacity="0.15" d="M265.228 224.416C263.875 229.615 261.604 234.163 258.628 238.603C258.033 239.47 259.115 240.445 259.872 239.687C264.038 235.68 266.797 230.535 268.42 225.066C269.014 223.008 265.769 222.359 265.228 224.416Z" fill="#222222"/>
<path opacity="0.15" d="M272.919 229.736C270.971 234.663 268.104 237.588 263.777 240.512C263.182 240.891 263.669 241.865 264.318 241.595C267.077 240.512 269.565 239.97 271.783 237.858C273.839 235.909 275.461 233.581 276.273 230.873C276.868 228.978 273.622 227.895 272.919 229.736Z" fill="#222222"/>
</g>
<path d="M268.818 131.884C268.679 131.804 268.642 131.709 268.706 131.598L270.002 129.353C270.642 128.245 271.531 127.28 272.67 126.46C273.853 125.628 275.143 125.024 276.542 124.649C277.853 124.298 278.831 124.013 279.475 123.793C280.135 123.546 280.633 123.26 280.967 122.936C281.302 122.613 281.622 122.187 281.926 121.661C282.486 120.691 282.659 119.719 282.445 118.746C282.247 117.745 281.704 116.988 280.818 116.476C279.931 115.964 278.99 115.865 277.997 116.178C277.047 116.479 276.292 117.115 275.732 118.085L273.98 121.119C273.916 121.23 273.828 121.254 273.718 121.19L269.02 118.478C268.909 118.414 268.886 118.326 268.95 118.215L270.702 115.181C271.598 113.629 272.774 112.423 274.231 111.565C275.715 110.722 277.283 110.278 278.934 110.234C280.613 110.206 282.201 110.624 283.698 111.488C285.194 112.352 286.336 113.51 287.123 114.962C287.938 116.43 288.338 118.01 288.323 119.701C288.307 121.391 287.852 123.013 286.956 124.565C286.428 125.479 285.859 126.241 285.249 126.849C284.655 127.43 283.87 127.957 282.896 128.428C281.937 128.873 280.617 129.367 278.936 129.911C277.843 130.204 276.984 130.54 276.359 130.918C275.762 131.312 275.272 131.842 274.888 132.507L273.736 134.502C273.672 134.613 273.57 134.628 273.432 134.548L268.818 131.884ZM264.402 139.533C264.263 139.453 264.234 139.344 264.314 139.205L266.978 134.591C267.042 134.48 267.143 134.465 267.282 134.545L271.896 137.209C272.034 137.289 272.072 137.384 272.008 137.495L269.344 142.109C269.264 142.248 269.154 142.277 269.016 142.197L264.402 139.533Z" fill="#9CB9E7"/>
<path d="M55.5344 143.465C55.459 143.54 55.3911 143.548 55.3307 143.487L54.1089 142.265C53.5055 141.662 53.0378 140.923 52.706 140.048C52.3741 139.143 52.2082 138.208 52.2082 137.242C52.2082 136.337 52.1931 135.658 52.1629 135.206C52.1176 134.738 52.0196 134.368 51.8687 134.097C51.7179 133.825 51.4992 133.546 51.2125 133.26C50.6846 132.732 50.0887 132.453 49.425 132.422C48.7462 132.377 48.1654 132.596 47.6827 133.079C47.1999 133.561 46.9737 134.15 47.0038 134.844C47.034 135.507 47.3131 136.103 47.8411 136.631L49.4929 138.283C49.5532 138.343 49.5532 138.404 49.4929 138.464L46.936 141.021C46.8756 141.081 46.8153 141.081 46.7549 141.021L45.1031 139.369C44.2584 138.524 43.6852 137.559 43.3835 136.473C43.0968 135.372 43.0818 134.285 43.3382 133.214C43.6097 132.128 44.1528 131.178 44.9674 130.363C45.782 129.549 46.7248 129.013 47.7958 128.757C48.8819 128.485 49.968 128.5 51.0542 128.802C52.1403 129.104 53.1057 129.677 53.9505 130.522C54.4483 131.02 54.8405 131.517 55.1271 132.015C55.3986 132.498 55.6023 133.094 55.738 133.803C55.8587 134.497 55.9492 135.432 56.0096 136.609C56.0096 137.363 56.0774 137.974 56.2132 138.441C56.3641 138.894 56.6205 139.301 56.9825 139.663L58.0687 140.749C58.129 140.81 58.1214 140.878 58.046 140.953L55.5344 143.465ZM59.6978 147.628C59.6224 147.704 59.547 147.704 59.4716 147.628L56.9599 145.116C56.8996 145.056 56.9071 144.988 56.9825 144.913L59.4942 142.401C59.5696 142.326 59.6375 142.318 59.6978 142.379L62.2095 144.89C62.2849 144.966 62.2849 145.041 62.2095 145.116L59.6978 147.628Z" fill="#9CB9E7"/>
<path d="M64.7599 122.424C64.6054 122.465 64.5115 122.424 64.4784 122.3L63.8075 119.797C63.4762 118.56 63.4231 117.249 63.6482 115.864C63.8959 114.439 64.3818 113.1 65.1059 111.846C65.7847 110.67 66.2743 109.777 66.5745 109.166C66.8664 108.525 67.0162 107.971 67.0239 107.505C67.0316 107.039 66.9568 106.513 66.7994 105.926C66.5095 104.844 65.9448 104.034 65.1052 103.497C64.2573 102.929 63.3388 102.778 62.3497 103.043C61.3606 103.308 60.6254 103.903 60.1442 104.827C59.6856 105.711 59.6012 106.695 59.8911 107.777L60.798 111.161C60.8311 111.285 60.7859 111.363 60.6622 111.396L55.4231 112.8C55.2994 112.833 55.221 112.788 55.1879 112.664L54.281 109.28C53.8172 107.549 53.7966 105.865 54.2193 104.228C54.6729 102.582 55.4679 101.16 56.6043 99.961C57.7716 98.7537 59.1898 97.9265 60.8589 97.4792C62.528 97.032 64.1544 97.0434 65.7381 97.5136C67.3526 97.9754 68.7522 98.8096 69.9368 100.016C71.1215 101.223 71.9457 102.691 72.4095 104.422C72.6828 105.442 72.819 106.383 72.8179 107.245C72.8086 108.075 72.6263 109.002 72.2709 110.025C71.9072 111.017 71.3233 112.3 70.5193 113.874C69.9536 114.853 69.5836 115.698 69.4092 116.407C69.2657 117.108 69.2934 117.83 69.4922 118.571L70.0885 120.797C70.1216 120.921 70.0609 121.003 69.9064 121.045L64.7599 122.424ZM67.0458 130.955C66.8913 130.996 66.7933 130.939 66.7519 130.785L65.3729 125.638C65.3397 125.515 65.4005 125.432 65.555 125.391L70.7015 124.012C70.856 123.97 70.9498 124.012 70.983 124.135L72.362 129.282C72.4034 129.436 72.3468 129.534 72.1923 129.576L67.0458 130.955Z" fill="#9CB9E7"/>
</g>
<path d="M32.6256 536C32.5616 536 32.5296 535.96 32.5296 535.88V522.2H29.4096C29.3296 522.2 29.2896 522.16 29.2896 522.08L29.3136 519.392C29.3136 519.328 29.3456 519.296 29.4096 519.296H38.5296C38.6096 519.296 38.6496 519.328 38.6496 519.392V522.08C38.6496 522.16 38.6176 522.2 38.5536 522.2H35.4096L35.4336 535.88C35.4336 535.96 35.4016 536 35.3376 536H32.6256ZM37.9174 535.88L40.8934 519.392C40.9094 519.328 40.9494 519.296 41.0134 519.296H44.4934C44.5574 519.296 44.5974 519.328 44.6134 519.392L47.4694 535.88C47.4854 535.96 47.4534 536 47.3734 536H44.7094C44.6454 536 44.6054 535.96 44.5894 535.88L44.3254 534.128H41.0614L40.7974 535.88C40.7814 535.96 40.7414 536 40.6774 536H38.0134C37.9494 536 37.9174 535.96 37.9174 535.88ZM41.5414 531.56H43.8454L42.8614 524.816L42.7174 523.928L42.6214 524.816L41.5414 531.56ZM49.0956 536C49.0156 536 48.9756 535.96 48.9756 535.88L49.0236 519.392C49.0236 519.328 49.0556 519.296 49.1196 519.296H53.7276C55.1996 519.296 56.3596 519.744 57.2076 520.64C58.0716 521.536 58.5036 522.752 58.5036 524.288C58.5036 525.424 58.2796 526.408 57.8316 527.24C57.3836 528.072 56.7996 528.712 56.0796 529.16C55.3596 529.608 54.5756 529.832 53.7276 529.832H51.9036V535.88C51.9036 535.96 51.8636 536 51.7836 536H49.0956ZM51.9036 526.928H53.7276C54.2396 526.928 54.6796 526.688 55.0476 526.208C55.4316 525.712 55.6236 525.072 55.6236 524.288C55.6236 523.664 55.4556 523.152 55.1196 522.752C54.7836 522.352 54.3196 522.152 53.7276 522.152L51.9036 522.176V526.928ZM66.0944 536C66.0304 536 65.9984 535.96 65.9984 535.88V522.2H62.8784C62.7984 522.2 62.7584 522.16 62.7584 522.08L62.7824 519.392C62.7824 519.328 62.8144 519.296 62.8784 519.296H71.9984C72.0784 519.296 72.1184 519.328 72.1184 519.392V522.08C72.1184 522.16 72.0864 522.2 72.0224 522.2H68.8784L68.9024 535.88C68.9024 535.96 68.8704 536 68.8064 536H66.0944ZM73.3998 536C73.3358 536 73.3038 535.96 73.3038 535.88L73.3278 519.392C73.3278 519.328 73.3678 519.296 73.4478 519.296H76.1118C76.1918 519.296 76.2318 519.328 76.2318 519.392L76.2078 525.92H79.8078V519.392C79.8078 519.328 79.8398 519.296 79.9038 519.296H82.5678C82.6478 519.296 82.6878 519.328 82.6878 519.392L82.7358 535.88C82.7358 535.96 82.6958 536 82.6158 536H79.9278C79.8478 536 79.8078 535.96 79.8078 535.88V528.824H76.2078V535.88C76.2078 535.96 76.1758 536 76.1118 536H73.3998ZM84.7904 536C84.7264 536 84.6944 535.96 84.6944 535.88L84.7184 519.392C84.7184 519.328 84.7504 519.296 84.8144 519.296H92.5184C92.5824 519.296 92.6144 519.336 92.6144 519.416V522.104C92.6144 522.168 92.5824 522.2 92.5184 522.2H87.5984V525.944H92.5184C92.5824 525.944 92.6144 525.976 92.6144 526.04L92.6384 528.752C92.6384 528.816 92.6064 528.848 92.5424 528.848H87.5984V533.048H92.5424C92.6064 533.048 92.6384 533.088 92.6384 533.168V535.904C92.6384 535.968 92.6064 536 92.5424 536H84.7904ZM98.431 524.936C98.367 524.936 98.335 524.904 98.335 524.84V522.056C98.335 521.48 98.471 520.968 98.743 520.52C99.015 520.056 99.367 519.696 99.799 519.44C100.247 519.168 100.727 519.032 101.239 519.032V520.52C100.839 520.52 100.495 520.672 100.207 520.976C99.935 521.28 99.799 521.64 99.799 522.056H101.143C101.207 522.056 101.239 522.088 101.239 522.152V524.84C101.239 524.904 101.207 524.936 101.143 524.936H98.431ZM106.474 532.928C106.394 532.928 106.354 532.888 106.354 532.808V528.512H102.946C102.85 528.512 102.802 528.472 102.802 528.392V526.496C102.802 526.48 102.81 526.456 102.826 526.424C102.858 526.376 102.898 526.352 102.946 526.352H106.354V521.984C106.354 521.952 106.394 521.936 106.474 521.936H108.49C108.554 521.936 108.586 521.952 108.586 521.984V526.352H112.162C112.242 526.352 112.282 526.4 112.282 526.496V528.392C112.282 528.424 112.266 528.456 112.234 528.488C112.202 528.504 112.178 528.512 112.162 528.512H108.586V532.808C108.586 532.888 108.554 532.928 108.49 532.928H106.474ZM113.827 524.936V523.448C114.227 523.448 114.563 523.296 114.835 522.992C115.123 522.688 115.267 522.328 115.267 521.912H113.923C113.859 521.912 113.827 521.88 113.827 521.816V519.128C113.827 519.064 113.859 519.032 113.923 519.032H116.635C116.699 519.032 116.731 519.064 116.731 519.128V521.912C116.731 522.472 116.595 522.984 116.323 523.448C116.051 523.912 115.691 524.28 115.243 524.552C114.811 524.808 114.339 524.936 113.827 524.936ZM122.361 536C122.297 536 122.265 535.96 122.265 535.88L122.313 519.392C122.313 519.328 122.345 519.296 122.409 519.296H127.017C127.929 519.296 128.745 519.52 129.465 519.968C130.185 520.4 130.753 520.976 131.169 521.696C131.585 522.416 131.793 523.2 131.793 524.048C131.793 524.736 131.633 525.376 131.313 525.968C131.009 526.56 130.641 527.04 130.209 527.408C130.673 527.872 131.033 528.408 131.289 529.016C131.545 529.624 131.673 530.264 131.673 530.936C131.673 531.864 131.449 532.712 131.001 533.48C130.553 534.248 129.945 534.864 129.177 535.328C128.425 535.776 127.585 536 126.657 536H122.361ZM125.193 525.92H127.017C127.577 525.92 128.025 525.728 128.361 525.344C128.713 524.944 128.889 524.512 128.889 524.048C128.889 523.536 128.705 523.096 128.337 522.728C127.969 522.344 127.529 522.152 127.017 522.152H125.193V525.92ZM125.169 533.072H126.657C127.233 533.072 127.729 532.864 128.145 532.448C128.561 532.016 128.769 531.512 128.769 530.936C128.769 530.36 128.561 529.864 128.145 529.448C127.729 529.032 127.233 528.824 126.657 528.824H125.193L125.169 533.072ZM137.814 536.24C136.966 536.24 136.182 536.024 135.462 535.592C134.742 535.144 134.166 534.552 133.734 533.816C133.318 533.08 133.11 532.272 133.11 531.392L133.158 519.392C133.158 519.328 133.19 519.296 133.254 519.296H135.942C136.006 519.296 136.038 519.328 136.038 519.392V531.392C136.038 531.936 136.206 532.4 136.542 532.784C136.894 533.152 137.318 533.336 137.814 533.336C138.326 533.336 138.75 533.152 139.086 532.784C139.438 532.4 139.614 531.936 139.614 531.392V519.392C139.614 519.328 139.646 519.296 139.71 519.296H142.398C142.462 519.296 142.494 519.328 142.494 519.392L142.542 531.392C142.542 532.288 142.326 533.104 141.894 533.84C141.478 534.576 140.91 535.16 140.19 535.592C139.486 536.024 138.694 536.24 137.814 536.24ZM146.837 536C146.773 536 146.741 535.96 146.741 535.88V522.2H143.621C143.541 522.2 143.501 522.16 143.501 522.08L143.525 519.392C143.525 519.328 143.557 519.296 143.621 519.296H152.741C152.821 519.296 152.861 519.328 152.861 519.392V522.08C152.861 522.16 152.829 522.2 152.765 522.2H149.621L149.645 535.88C149.645 535.96 149.613 536 149.549 536H146.837ZM156.446 536C156.382 536 156.35 535.96 156.35 535.88V522.2H153.23C153.15 522.2 153.11 522.16 153.11 522.08L153.134 519.392C153.134 519.328 153.166 519.296 153.23 519.296H162.35C162.43 519.296 162.47 519.328 162.47 519.392V522.08C162.47 522.16 162.438 522.2 162.374 522.2H159.23L159.254 535.88C159.254 535.96 159.222 536 159.158 536H156.446ZM167.861 536.24C166.997 536.24 166.205 536.024 165.485 535.592C164.781 535.144 164.213 534.56 163.781 533.84C163.349 533.104 163.133 532.296 163.133 531.416L163.157 523.808C163.157 522.928 163.365 522.128 163.781 521.408C164.213 520.688 164.789 520.112 165.509 519.68C166.229 519.248 167.013 519.032 167.861 519.032C168.725 519.032 169.509 519.248 170.213 519.68C170.917 520.112 171.477 520.688 171.893 521.408C172.325 522.128 172.541 522.928 172.541 523.808L172.565 531.416C172.565 532.296 172.349 533.104 171.917 533.84C171.501 534.56 170.933 535.144 170.213 535.592C169.509 536.024 168.725 536.24 167.861 536.24ZM167.861 533.336C168.341 533.336 168.757 533.144 169.109 532.76C169.477 532.36 169.661 531.912 169.661 531.416L169.637 523.808C169.637 523.28 169.469 522.832 169.133 522.464C168.797 522.096 168.373 521.912 167.861 521.912C167.365 521.912 166.941 522.096 166.589 522.464C166.237 522.816 166.061 523.264 166.061 523.808V531.416C166.061 531.944 166.237 532.4 166.589 532.784C166.941 533.152 167.365 533.336 167.861 533.336ZM174.606 536C174.478 536 174.414 535.944 174.414 535.832L174.39 519.488C174.39 519.36 174.454 519.296 174.582 519.296H176.742L180.798 528.752L180.678 519.488C180.678 519.36 180.75 519.296 180.894 519.296H183.27C183.366 519.296 183.414 519.36 183.414 519.488L183.438 535.856C183.438 535.952 183.398 536 183.318 536H181.206L177.054 527.168L177.222 535.808C177.222 535.936 177.15 536 177.006 536H174.606ZM191.485 536C191.421 536 191.389 535.96 191.389 535.88V522.2H188.269C188.189 522.2 188.149 522.16 188.149 522.08L188.173 519.392C188.173 519.328 188.205 519.296 188.269 519.296H197.389C197.469 519.296 197.509 519.328 197.509 519.392V522.08C197.509 522.16 197.477 522.2 197.413 522.2H194.269L194.293 535.88C194.293 535.96 194.261 536 194.197 536H191.485ZM202.9 536.24C202.036 536.24 201.244 536.024 200.524 535.592C199.82 535.144 199.252 534.56 198.82 533.84C198.388 533.104 198.172 532.296 198.172 531.416L198.196 523.808C198.196 522.928 198.404 522.128 198.82 521.408C199.252 520.688 199.828 520.112 200.548 519.68C201.268 519.248 202.052 519.032 202.9 519.032C203.764 519.032 204.548 519.248 205.252 519.68C205.956 520.112 206.516 520.688 206.932 521.408C207.364 522.128 207.58 522.928 207.58 523.808L207.604 531.416C207.604 532.296 207.388 533.104 206.956 533.84C206.54 534.56 205.972 535.144 205.252 535.592C204.548 536.024 203.764 536.24 202.9 536.24ZM202.9 533.336C203.38 533.336 203.796 533.144 204.148 532.76C204.516 532.36 204.7 531.912 204.7 531.416L204.676 523.808C204.676 523.28 204.508 522.832 204.172 522.464C203.836 522.096 203.412 521.912 202.9 521.912C202.404 521.912 201.98 522.096 201.628 522.464C201.276 522.816 201.1 523.264 201.1 523.808V531.416C201.1 531.944 201.276 532.4 201.628 532.784C201.98 533.152 202.404 533.336 202.9 533.336ZM212.738 535.88L215.714 519.392C215.73 519.328 215.77 519.296 215.834 519.296H219.314C219.378 519.296 219.418 519.328 219.434 519.392L222.29 535.88C222.306 535.96 222.274 536 222.194 536H219.53C219.466 536 219.426 535.96 219.41 535.88L219.146 534.128H215.882L215.618 535.88C215.602 535.96 215.562 536 215.498 536H212.834C212.77 536 212.738 535.96 212.738 535.88ZM216.362 531.56H218.666L217.682 524.816L217.538 523.928L217.442 524.816L216.362 531.56ZM223.916 536C223.836 536 223.796 535.96 223.796 535.88L223.844 519.392C223.844 519.328 223.876 519.296 223.94 519.296L228.428 519.272C229.308 519.256 230.108 519.464 230.828 519.896C231.564 520.328 232.148 520.912 232.58 521.648C233.012 522.368 233.228 523.168 233.228 524.048V530.936C233.228 531.864 233.004 532.712 232.556 533.48C232.108 534.232 231.508 534.832 230.756 535.28C230.004 535.728 229.156 535.96 228.212 535.976L223.916 536ZM226.724 533.048H228.212C228.804 533.048 229.3 532.84 229.7 532.424C230.116 532.008 230.324 531.512 230.324 530.936V524.024C230.324 523.512 230.132 523.072 229.748 522.704C229.38 522.32 228.94 522.136 228.428 522.152L226.748 522.176L226.724 533.048ZM235.236 536C235.156 536 235.116 535.96 235.116 535.88L235.164 519.392C235.164 519.328 235.196 519.296 235.26 519.296L239.748 519.272C240.628 519.256 241.428 519.464 242.148 519.896C242.884 520.328 243.468 520.912 243.9 521.648C244.332 522.368 244.548 523.168 244.548 524.048V530.936C244.548 531.864 244.324 532.712 243.876 533.48C243.428 534.232 242.828 534.832 242.076 535.28C241.324 535.728 240.476 535.96 239.532 535.976L235.236 536ZM238.044 533.048H239.532C240.124 533.048 240.62 532.84 241.02 532.424C241.436 532.008 241.644 531.512 241.644 530.936V524.024C241.644 523.512 241.452 523.072 241.068 522.704C240.7 522.32 240.26 522.136 239.748 522.152L238.068 522.176L238.044 533.048ZM249.746 535.88L252.722 519.392C252.738 519.328 252.778 519.296 252.842 519.296H256.322C256.386 519.296 256.426 519.328 256.442 519.392L259.298 535.88C259.314 535.96 259.282 536 259.202 536H256.538C256.474 536 256.434 535.96 256.418 535.88L256.154 534.128H252.89L252.626 535.88C252.61 535.96 252.57 536 252.506 536H249.842C249.778 536 249.746 535.96 249.746 535.88ZM253.37 531.56H255.674L254.69 524.816L254.546 523.928L254.45 524.816L253.37 531.56ZM267.001 536C266.937 536 266.905 535.96 266.905 535.88V522.2H263.785C263.705 522.2 263.665 522.16 263.665 522.08L263.689 519.392C263.689 519.328 263.721 519.296 263.785 519.296H272.905C272.985 519.296 273.025 519.328 273.025 519.392V522.08C273.025 522.16 272.993 522.2 272.929 522.2H269.785L269.809 535.88C269.809 535.96 269.777 536 269.713 536H267.001ZM272.527 535.88L275.503 519.392C275.519 519.328 275.559 519.296 275.623 519.296H279.103C279.167 519.296 279.207 519.328 279.223 519.392L282.079 535.88C282.095 535.96 282.063 536 281.983 536H279.319C279.255 536 279.215 535.96 279.199 535.88L278.935 534.128H275.671L275.407 535.88C275.391 535.96 275.351 536 275.287 536H272.623C272.559 536 272.527 535.96 272.527 535.88ZM276.151 531.56H278.455L277.471 524.816L277.327 523.928L277.231 524.816L276.151 531.56ZM287.196 536.24C286.332 536.24 285.54 536.024 284.82 535.592C284.116 535.144 283.548 534.56 283.116 533.84C282.7 533.104 282.492 532.296 282.492 531.416V530.312C282.492 530.232 282.532 530.192 282.612 530.192H285.3C285.364 530.192 285.396 530.232 285.396 530.312V531.416C285.396 531.944 285.572 532.4 285.924 532.784C286.276 533.152 286.7 533.336 287.196 533.336C287.692 533.336 288.116 533.144 288.468 532.76C288.82 532.376 288.996 531.928 288.996 531.416C288.996 530.824 288.612 530.312 287.844 529.88C287.588 529.736 287.188 529.512 286.644 529.208C286.1 528.904 285.588 528.616 285.108 528.344C284.228 527.832 283.572 527.192 283.14 526.424C282.724 525.64 282.516 524.76 282.516 523.784C282.516 522.888 282.732 522.088 283.164 521.384C283.596 520.664 284.164 520.096 284.868 519.68C285.588 519.264 286.364 519.056 287.196 519.056C288.044 519.056 288.82 519.272 289.524 519.704C290.244 520.12 290.812 520.688 291.228 521.408C291.66 522.112 291.876 522.904 291.876 523.784V525.752C291.876 525.816 291.844 525.848 291.78 525.848H289.092C289.028 525.848 288.996 525.816 288.996 525.752L288.972 523.784C288.972 523.224 288.796 522.768 288.444 522.416C288.092 522.064 287.676 521.888 287.196 521.888C286.7 521.888 286.276 522.08 285.924 522.464C285.572 522.832 285.396 523.272 285.396 523.784C285.396 524.312 285.508 524.752 285.732 525.104C285.956 525.456 286.364 525.792 286.956 526.112C287.036 526.16 287.188 526.248 287.412 526.376C287.652 526.488 287.908 526.624 288.18 526.784C288.452 526.928 288.692 527.056 288.9 527.168C289.124 527.28 289.26 527.352 289.308 527.384C290.108 527.832 290.74 528.384 291.204 529.04C291.668 529.68 291.9 530.472 291.9 531.416C291.9 532.328 291.684 533.152 291.252 533.888C290.836 534.608 290.268 535.184 289.548 535.616C288.844 536.032 288.06 536.24 287.196 536.24ZM293.665 536C293.601 536 293.569 535.96 293.569 535.88L293.617 519.416C293.617 519.336 293.649 519.296 293.713 519.296H296.401C296.465 519.296 296.497 519.336 296.497 519.416V525.104L300.265 519.392C300.313 519.328 300.369 519.296 300.433 519.296H303.193C303.257 519.296 303.273 519.328 303.241 519.392L299.089 526.016L303.745 535.904C303.777 535.968 303.737 536 303.625 536H300.697C300.617 536 300.569 535.968 300.553 535.904L297.313 528.848L296.473 530.168V535.88C296.473 535.96 296.441 536 296.377 536H293.665ZM305.443 531.584C305.379 531.584 305.339 531.544 305.323 531.464L304.819 525.944V519.416C304.819 519.336 304.851 519.296 304.915 519.296H307.603C307.683 519.296 307.723 519.336 307.723 519.416L307.699 525.944L307.195 531.464C307.179 531.544 307.139 531.584 307.075 531.584H305.443ZM304.915 536C304.851 536 304.819 535.96 304.819 535.88V533.264C304.819 533.2 304.851 533.168 304.915 533.168H307.603C307.667 533.168 307.699 533.2 307.699 533.264V535.88C307.699 535.96 307.667 536 307.603 536H304.915Z" fill="#0062F4"/>
<path d="M62.352 46C62.096 46 61.968 45.888 61.968 45.664L61.92 12.976C61.92 12.72 62.048 12.592 62.304 12.592H66.624L74.736 31.504L74.496 12.976C74.496 12.72 74.64 12.592 74.928 12.592H79.68C79.872 12.592 79.968 12.72 79.968 12.976L80.016 45.712C80.016 45.904 79.936 46 79.776 46H75.552L67.248 28.336L67.584 45.616C67.584 45.872 67.44 46 67.152 46H62.352ZM93.0656 46.48C91.3376 46.48 89.7536 46.048 88.3136 45.184C86.9056 44.288 85.7696 43.12 84.9056 41.68C84.0416 40.208 83.6096 38.592 83.6096 36.832L83.6576 21.616C83.6576 19.856 84.0736 18.256 84.9056 16.816C85.7696 15.376 86.9216 14.224 88.3616 13.36C89.8016 12.496 91.3696 12.064 93.0656 12.064C94.7936 12.064 96.3616 12.496 97.7696 13.36C99.1776 14.224 100.298 15.376 101.13 16.816C101.994 18.256 102.426 19.856 102.426 21.616L102.474 36.832C102.474 38.592 102.042 40.208 101.178 41.68C100.346 43.12 99.2096 44.288 97.7696 45.184C96.3616 46.048 94.7936 46.48 93.0656 46.48ZM93.0656 40.672C94.0256 40.672 94.8576 40.288 95.5616 39.52C96.2976 38.72 96.6656 37.824 96.6656 36.832L96.6176 21.616C96.6176 20.56 96.2816 19.664 95.6096 18.928C94.9376 18.192 94.0896 17.824 93.0656 17.824C92.0736 17.824 91.2256 18.192 90.5216 18.928C89.8176 19.632 89.4656 20.528 89.4656 21.616V36.832C89.4656 37.888 89.8176 38.8 90.5216 39.568C91.2256 40.304 92.0736 40.672 93.0656 40.672ZM118.048 46C117.92 46 117.856 45.92 117.856 45.76V18.4H111.616C111.456 18.4 111.376 18.32 111.376 18.16L111.424 12.784C111.424 12.656 111.488 12.592 111.616 12.592H129.856C130.016 12.592 130.096 12.656 130.096 12.784V18.16C130.096 18.32 130.032 18.4 129.904 18.4H123.616L123.664 45.76C123.664 45.92 123.6 46 123.472 46H118.048ZM129.101 45.76L135.053 12.784C135.085 12.656 135.165 12.592 135.293 12.592H142.253C142.381 12.592 142.461 12.656 142.493 12.784L148.205 45.76C148.237 45.92 148.173 46 148.013 46H142.685C142.557 46 142.477 45.92 142.445 45.76L141.917 42.256H135.389L134.861 45.76C134.829 45.92 134.749 46 134.621 46H129.293C129.165 46 129.101 45.92 129.101 45.76ZM136.349 37.12H140.957L138.989 23.632L138.701 21.856L138.509 23.632L136.349 37.12ZM158.439 46.48C156.711 46.48 155.127 46.048 153.687 45.184C152.279 44.288 151.143 43.12 150.279 41.68C149.447 40.208 149.031 38.592 149.031 36.832V34.624C149.031 34.464 149.111 34.384 149.271 34.384H154.647C154.775 34.384 154.839 34.464 154.839 34.624V36.832C154.839 37.888 155.191 38.8 155.895 39.568C156.599 40.304 157.447 40.672 158.439 40.672C159.431 40.672 160.279 40.288 160.983 39.52C161.687 38.752 162.039 37.856 162.039 36.832C162.039 35.648 161.271 34.624 159.735 33.76C159.223 33.472 158.423 33.024 157.335 32.416C156.247 31.808 155.223 31.232 154.263 30.688C152.503 29.664 151.191 28.384 150.327 26.848C149.495 25.28 149.079 23.52 149.079 21.568C149.079 19.776 149.511 18.176 150.375 16.768C151.239 15.328 152.375 14.192 153.783 13.36C155.223 12.528 156.775 12.112 158.439 12.112C160.135 12.112 161.687 12.544 163.095 13.408C164.535 14.24 165.671 15.376 166.503 16.816C167.367 18.224 167.799 19.808 167.799 21.568V25.504C167.799 25.632 167.735 25.696 167.607 25.696H162.231C162.103 25.696 162.039 25.632 162.039 25.504L161.991 21.568C161.991 20.448 161.639 19.536 160.935 18.832C160.231 18.128 159.399 17.776 158.439 17.776C157.447 17.776 156.599 18.16 155.895 18.928C155.191 19.664 154.839 20.544 154.839 21.568C154.839 22.624 155.063 23.504 155.511 24.208C155.959 24.912 156.775 25.584 157.959 26.224C158.119 26.32 158.423 26.496 158.871 26.752C159.351 26.976 159.863 27.248 160.407 27.568C160.951 27.856 161.431 28.112 161.847 28.336C162.295 28.56 162.567 28.704 162.663 28.768C164.263 29.664 165.527 30.768 166.455 32.08C167.383 33.36 167.847 34.944 167.847 36.832C167.847 38.656 167.415 40.304 166.551 41.776C165.719 43.216 164.583 44.368 163.143 45.232C161.735 46.064 160.167 46.48 158.439 46.48ZM171.378 46C171.25 46 171.186 45.92 171.186 45.76L171.282 12.832C171.282 12.672 171.346 12.592 171.474 12.592H176.85C176.978 12.592 177.042 12.672 177.042 12.832V24.208L184.578 12.784C184.674 12.656 184.786 12.592 184.914 12.592H190.434C190.562 12.592 190.594 12.656 190.53 12.784L182.226 26.032L191.538 45.808C191.602 45.936 191.522 46 191.298 46H185.442C185.282 46 185.186 45.936 185.154 45.808L178.674 31.696L176.994 34.336V45.76C176.994 45.92 176.93 46 176.802 46H171.378ZM200.018 46.48C198.29 46.48 196.706 46.048 195.266 45.184C193.858 44.288 192.722 43.12 191.858 41.68C191.026 40.208 190.61 38.592 190.61 36.832V34.624C190.61 34.464 190.69 34.384 190.85 34.384H196.226C196.354 34.384 196.418 34.464 196.418 34.624V36.832C196.418 37.888 196.77 38.8 197.474 39.568C198.178 40.304 199.026 40.672 200.018 40.672C201.01 40.672 201.858 40.288 202.562 39.52C203.266 38.752 203.618 37.856 203.618 36.832C203.618 35.648 202.85 34.624 201.314 33.76C200.802 33.472 200.002 33.024 198.914 32.416C197.826 31.808 196.802 31.232 195.842 30.688C194.082 29.664 192.77 28.384 191.906 26.848C191.074 25.28 190.658 23.52 190.658 21.568C190.658 19.776 191.09 18.176 191.954 16.768C192.818 15.328 193.954 14.192 195.362 13.36C196.802 12.528 198.354 12.112 200.018 12.112C201.714 12.112 203.266 12.544 204.674 13.408C206.114 14.24 207.25 15.376 208.082 16.816C208.946 18.224 209.378 19.808 209.378 21.568V25.504C209.378 25.632 209.314 25.696 209.186 25.696H203.81C203.682 25.696 203.618 25.632 203.618 25.504L203.57 21.568C203.57 20.448 203.218 19.536 202.514 18.832C201.81 18.128 200.978 17.776 200.018 17.776C199.026 17.776 198.178 18.16 197.474 18.928C196.77 19.664 196.418 20.544 196.418 21.568C196.418 22.624 196.642 23.504 197.09 24.208C197.538 24.912 198.354 25.584 199.538 26.224C199.698 26.32 200.002 26.496 200.45 26.752C200.93 26.976 201.442 27.248 201.986 27.568C202.53 27.856 203.01 28.112 203.426 28.336C203.874 28.56 204.146 28.704 204.242 28.768C205.842 29.664 207.106 30.768 208.034 32.08C208.962 33.36 209.426 34.944 209.426 36.832C209.426 38.656 208.994 40.304 208.13 41.776C207.298 43.216 206.162 44.368 204.722 45.232C203.314 46.064 201.746 46.48 200.018 46.48ZM224.353 46C224.257 46 224.209 45.936 224.209 45.808L224.257 32.176L217.825 12.784C217.793 12.656 217.841 12.592 217.969 12.592H223.297C223.457 12.592 223.553 12.656 223.585 12.784L227.137 25.696L230.737 12.784C230.769 12.656 230.849 12.592 230.977 12.592H236.353C236.481 12.592 236.529 12.656 236.497 12.784L230.017 31.984L230.065 45.808C230.065 45.936 230.001 46 229.873 46H224.353ZM239.346 46C239.218 46 239.154 45.92 239.154 45.76L239.202 12.784C239.202 12.656 239.266 12.592 239.394 12.592H254.802C254.93 12.592 254.994 12.672 254.994 12.832V18.208C254.994 18.336 254.93 18.4 254.802 18.4H244.962V25.888H254.802C254.93 25.888 254.994 25.952 254.994 26.08L255.042 31.504C255.042 31.632 254.978 31.696 254.85 31.696H244.962V40.096H254.85C254.978 40.096 255.042 40.176 255.042 40.336V45.808C255.042 45.936 254.978 46 254.85 46H239.346ZM264.111 46C263.983 46 263.919 45.92 263.919 45.76V18.4H257.679C257.519 18.4 257.439 18.32 257.439 18.16L257.487 12.784C257.487 12.656 257.551 12.592 257.679 12.592H275.919C276.079 12.592 276.159 12.656 276.159 12.784V18.16C276.159 18.32 276.095 18.4 275.967 18.4H269.679L269.727 45.76C269.727 45.92 269.663 46 269.535 46H264.111Z" fill="#0062F4"/>
<defs>
<linearGradient id="paint0_linear_43_2356" x1="117.356" y1="454.821" x2="299.431" y2="454.821" gradientUnits="userSpaceOnUse">
<stop stop-color="#4D4D4D"/>
<stop offset="1"/>
</linearGradient>
<linearGradient id="paint1_linear_43_2356" x1="117.345" y1="454.821" x2="299.42" y2="454.821" gradientUnits="userSpaceOnUse">
<stop/>
<stop offset="1"/>
</linearGradient>
<clipPath id="clip0_43_2356">
<rect width="300" height="371.341" fill="white" transform="translate(0 97)"/>
</clipPath>
</defs>
</svg>
