<svg width="395" height="465" viewBox="0 0 395 465" fill="none" xmlns="http://www.w3.org/2000/svg">
<g clip-path="url(#clip0_147_2411)">
<path d="M121.429 447.857C118.746 448.382 115.537 449.537 115.221 452.268C114.853 455.314 118.588 457.099 121.587 457.73C132.898 460.198 144.577 460.513 156.204 460.828C217.652 462.299 279.099 462.561 340.548 461.563C339.654 454.054 330.709 450.798 323.291 449.38C291.41 443.288 258.424 446.754 227.121 440.295C194.135 433.415 153.994 441.188 121.429 447.857Z" fill="url(#paint0_linear_147_2411)"/>
<path d="M121.429 447.857C118.746 448.382 115.537 449.537 115.221 452.268C114.853 455.314 118.588 457.099 121.587 457.73C132.898 460.198 144.577 460.513 156.204 460.828C217.652 462.299 279.099 462.561 340.548 461.563C339.654 454.054 330.709 450.798 323.291 449.38C291.41 443.288 258.424 446.754 227.121 440.295C194.135 433.415 153.994 441.188 121.429 447.857Z" fill="url(#paint1_linear_147_2411)"/>
<path d="M180.561 413.36C180.614 412.572 180.719 411.732 180.771 410.944C173.827 406.218 161.622 407.741 154.256 410.157C146.365 412.73 146.365 417.561 146.47 425.754C146.523 430.375 146.944 435.574 150.521 438.567C153.257 440.878 157.097 441.193 160.674 441.403C163.883 441.613 167.04 441.77 170.249 441.981C172.459 442.086 174.931 442.138 176.668 440.72C178.404 439.25 178.667 436.782 178.877 434.524C179.456 427.434 180.035 420.397 180.561 413.36Z" fill="#222222"/>
<path d="M189.039 413.36C188.986 412.572 188.881 411.732 188.828 410.944C195.773 406.218 207.978 407.741 215.344 410.157C223.235 412.73 223.235 417.561 223.13 425.754C223.077 430.375 222.656 435.574 219.078 438.567C216.343 440.878 212.502 441.193 208.925 441.403C205.716 441.613 202.559 441.77 199.35 441.981C197.141 442.086 194.668 442.138 192.932 440.72C191.196 439.25 190.933 436.782 190.722 434.524C190.196 427.434 189.617 420.397 189.039 413.36Z" fill="#222222"/>
<path d="M129.789 395.817C128.053 396.185 126.369 396.71 124.738 397.393C123.528 397.865 122.318 398.496 121.476 399.441C120.319 400.806 120.003 402.697 119.793 404.535C119.53 406.951 119.424 409.366 119.477 411.782C119.477 413.83 119.635 415.931 120.687 417.664C122.16 420.08 125.054 421.182 127.789 421.865C132.998 423.178 138.416 423.493 143.782 423.756C176.242 425.331 208.808 424.28 241.11 420.657C242.425 420.5 243.898 420.29 244.793 419.292C245.319 418.714 245.582 417.926 245.845 417.191C247.528 411.835 248.633 404.535 245.003 399.546C241.899 395.293 236.165 397.708 231.851 397.655C227.432 397.603 222.96 397.235 218.54 397.078C209.913 396.71 201.285 396.343 192.657 396.08C180.504 395.66 168.298 395.293 156.146 394.977C147.939 394.82 138.259 393.927 129.789 395.817Z" fill="#FCBF49"/>
<path d="M199.551 280.547C221.594 280.652 243.584 281.125 265.628 281.598C265.102 269.887 264.26 258.176 261.735 246.728C257.368 226.667 247.372 207.079 230.485 195.368C204.601 177.408 163.513 179.771 135.63 197.521C123.898 204.978 114.481 215.219 109.536 227.77C103.854 242.106 102.328 257.756 101.434 273.143C101.329 275.191 101.223 277.186 101.118 279.234C133.841 277.974 166.775 280.442 199.551 280.547Z" fill="#FCBF49"/>
<path d="M197.785 286.431C165.483 286.378 133.075 284.068 100.773 285.223C99.1948 320.198 100.668 355.331 105.192 390.096C105.824 394.874 106.613 399.863 109.769 403.644C114.662 409.473 123.132 406.9 129.708 406.9C140.809 406.9 152.225 407.373 163.431 407.635C184.58 408.108 205.571 408.161 226.615 405.797C236.611 404.695 256.812 407.74 261.6 398.76C265.546 391.461 263.915 376.651 264.493 368.512C265.177 358.849 265.704 349.239 266.019 339.576C266.598 322.193 266.492 304.811 265.808 287.376C243.187 286.956 220.459 286.431 197.785 286.431Z" fill="#F77F00"/>
<path d="M274.069 343.03C274.49 342.662 274.543 342.032 274.596 341.507C275.701 326.96 276.647 312.414 277.331 297.867C277.384 296.607 277.384 295.136 276.384 294.296C275.648 293.718 274.701 293.666 273.754 293.666C270.492 293.613 267.283 293.561 264.021 293.561C261.969 310.103 261.128 326.75 261.548 343.398C265.179 343.398 268.756 343.45 272.386 343.45C272.965 343.45 273.596 343.45 274.069 343.03Z" fill="#222222"/>
<path d="M290.836 376.538C291.257 375.33 291.73 374.07 292.677 373.177C293.414 372.494 294.413 372.074 295.36 371.759C299.464 370.289 303.673 369.186 307.934 368.451C311.248 370.709 314.247 373.387 316.825 376.486C317.298 377.064 317.772 377.694 317.877 378.429C317.982 379.006 317.824 379.584 317.667 380.162C315.983 386.621 314.352 393.081 312.669 399.54C310.196 399.855 307.723 399.907 305.303 399.592C306.25 395.654 307.197 391.715 308.092 387.829C308.986 384.1 309.67 379.532 306.829 376.906C303.936 377.641 301.095 378.429 298.201 379.164C297.728 379.269 297.202 379.427 296.781 379.742C296.307 380.162 296.097 380.792 295.886 381.37C294.676 385.046 293.782 388.827 293.151 392.66C291.309 392.135 289.468 391.663 287.627 391.137C287.469 386.148 289.152 381.265 290.836 376.538Z" fill="#222222"/>
<path d="M313.198 370.871C313.356 370.714 313.409 370.504 313.461 370.346C313.988 367.983 314.514 365.62 315.092 363.309C311.41 362.469 307.622 361.891 303.887 361.576C303.308 363.519 302.94 365.567 302.782 367.615C302.729 368.035 302.729 368.561 303.045 368.876C303.255 369.086 303.519 369.138 303.781 369.243C306.57 370.083 309.463 370.714 312.409 371.081C312.62 371.029 312.935 371.081 313.198 370.871Z" fill="#FCBF49"/>
<path d="M316.885 361.68C319.095 357.952 317.306 348.131 317.306 344.193C317.253 338.784 317.253 333.322 315.991 328.071C314.728 322.819 312.15 317.673 307.889 314.364C305.469 312.474 302.628 311.266 299.682 310.268C290.896 307.275 281.479 306.277 272.272 307.38C271.536 307.485 270.747 307.59 270.221 308.115C269.642 308.64 269.536 309.481 269.431 310.268C269.01 313.261 268.432 316.57 268.59 319.616C268.853 324.972 267.748 323.502 271.641 325.025C274.64 326.18 280.269 325.235 283.689 326.023C287.687 326.915 291.58 328.281 295.473 329.646C297.945 330.486 300.576 331.537 301.839 333.795C302.523 335.003 302.733 336.473 302.891 337.891C303.838 346.294 304.259 354.748 304.206 363.203C304.206 364.673 315.044 363.938 316.464 362.311C316.622 362.1 316.727 361.89 316.885 361.68Z" fill="#FFDCB8"/>
<g opacity="0.15">
<path opacity="0.15" d="M298.474 312.687C298.158 317.729 296.843 322.298 294.844 326.919C294.475 327.812 295.58 328.495 296.159 327.707C299.316 323.296 300.947 318.044 301.525 312.687C301.736 310.797 298.632 310.744 298.474 312.687Z" fill="#222222"/>
<path opacity="0.15" d="M306.53 316.302C305.636 321.185 303.426 324.389 299.954 327.855C299.481 328.328 300.111 329.115 300.638 328.748C303.005 327.277 305.215 326.332 306.898 323.969C308.476 321.763 309.529 319.4 309.844 316.722C310.055 314.884 306.898 314.464 306.53 316.302Z" fill="#222222"/>
</g>
<path d="M95.608 293.981C95.187 294.349 95.1346 294.979 95.0819 295.504C93.9773 310.051 93.0301 324.597 92.3462 339.144C92.2935 340.404 92.2935 341.875 93.293 342.715C94.0297 343.292 94.9768 343.345 95.9236 343.345C99.1854 343.398 102.395 343.45 105.656 343.45C107.708 326.908 108.55 310.26 108.129 293.613C104.499 293.613 100.922 293.561 97.2915 293.561C96.713 293.561 96.029 293.561 95.608 293.981Z" fill="#222222"/>
<path d="M54.8294 276.086C54.9872 277.346 55.1449 278.711 54.6714 279.866C54.3032 280.812 53.6194 281.6 52.8829 282.335C49.8841 285.433 46.6225 288.322 43.0976 290.895C39.0993 290.37 35.2062 289.267 31.5762 287.639C30.8922 287.324 30.1555 287.009 29.7347 286.379C29.419 285.906 29.2612 285.328 29.156 284.751C27.7882 278.239 26.3678 271.674 25 265.163C27.0518 263.797 29.2614 262.642 31.5762 261.801C32.4705 265.74 33.4173 269.679 34.3116 273.617C35.206 277.346 36.6265 281.757 40.3092 282.807C42.5714 280.864 44.7811 278.921 47.0433 276.978C47.4116 276.663 47.8325 276.296 48.0429 275.823C48.306 275.245 48.2005 274.562 48.0952 273.932C47.5165 270.099 46.6749 266.318 45.5175 262.589C47.4114 262.222 49.2528 261.854 51.1467 261.486C53.5667 265.95 54.1981 271.097 54.8294 276.086Z" fill="#222222"/>
<path d="M37.3487 291.064C37.2961 291.274 37.3487 291.485 37.3487 291.642C37.9274 294.005 38.5062 296.316 39.0322 298.679C42.7149 297.786 46.3449 296.631 49.8698 295.265C49.5541 293.27 48.9754 291.274 48.1862 289.384C48.0284 288.964 47.8182 288.544 47.3973 288.386C47.1342 288.281 46.871 288.333 46.5554 288.386C43.6618 288.859 40.821 289.594 38.0327 290.539C37.7696 290.644 37.4539 290.802 37.3487 291.064Z" fill="#FCBF49"/>
<path d="M38.1504 300.921C37.7821 305.228 43.7794 313.21 45.5682 316.781C47.9882 321.612 50.461 326.496 53.9332 330.645C57.4053 334.794 61.9822 338.259 67.2958 339.31C70.2947 339.94 73.3984 339.783 76.4497 339.362C85.6566 338.154 94.5476 334.898 102.281 329.805C102.912 329.384 103.544 328.964 103.807 328.229C104.07 327.494 103.807 326.706 103.596 325.919C102.597 323.03 101.702 319.827 100.177 317.149C97.5462 312.475 99.2299 313.315 95.021 313.63C91.8119 313.892 87.1822 317.254 83.7626 318.094C79.7642 319.092 75.6607 319.564 71.6099 320.089C69.032 320.405 66.1912 320.667 64.034 319.197C62.8767 318.409 62.0349 317.201 61.2983 315.993C56.7214 308.904 52.5652 301.499 48.8299 293.885C48.1986 292.572 38.8341 298.033 38.2554 300.134C38.2028 300.449 38.1504 300.659 38.1504 300.921Z" fill="#FFDCB8"/>
<g opacity="0.15">
<path opacity="0.15" d="M76.3942 336.619C74.4479 331.946 73.6061 327.272 73.2905 322.23C73.2378 321.233 71.9224 321.128 71.7646 322.126C70.9229 327.482 71.7649 332.891 73.6589 337.932C74.3428 339.77 77.1836 338.405 76.3942 336.619Z" fill="#222222"/>
<path opacity="0.15" d="M67.6136 336.994C66.2458 332.215 66.7719 328.382 68.3503 323.708C68.5608 323.077 67.6663 322.657 67.298 323.182C65.8775 325.546 64.2994 327.383 63.826 330.219C63.405 332.898 63.5104 335.471 64.4572 337.992C65.0885 339.83 68.087 338.779 67.6136 336.994Z" fill="#222222"/>
</g>
<path d="M115.805 246.204C115.857 248.2 115.962 250.248 116.804 252.086C118.961 256.655 124.643 258.125 129.641 258.965C158.208 263.744 187.406 265.372 216.131 261.749C219.919 261.276 223.707 260.698 227.179 259.123C230.651 257.548 233.755 254.869 235.018 251.351C235.807 249.093 235.859 246.677 235.912 244.261C235.964 241.846 235.964 239.377 236.017 236.962C236.017 235.859 236.017 234.756 235.596 233.706C235.123 232.603 234.176 231.71 233.176 231.027C229.388 228.454 224.601 227.876 220.024 227.404C189.616 224.358 158.839 221.68 128.589 225.776C127.326 225.934 126.011 226.143 125.116 227.036C124.643 227.456 124.327 228.034 123.854 228.454C122.96 229.137 121.75 229.084 120.698 229.452C117.751 230.397 116.699 234.021 116.331 237.119C115.91 240.113 115.752 243.158 115.805 246.204Z" fill="#222222"/>
<path opacity="0.2" d="M153.89 250.625C154.889 248.788 155.047 246.635 154.837 244.534C154.731 243.274 154.416 241.961 153.627 241.016C151.943 239.02 148.839 239.23 146.261 238.758C143.999 239.703 142.105 241.541 141.158 243.799C140.579 245.164 140.316 246.635 140.474 248.105C140.842 251.098 143.315 253.672 146.261 254.197C149.26 254.827 152.469 253.304 153.89 250.625Z" fill="#FCBF49"/>
<path opacity="0.2" d="M203.981 250.625C204.981 248.788 205.139 246.635 204.928 244.534C204.823 243.274 204.507 241.961 203.718 241.016C202.035 239.02 198.931 239.23 196.353 238.758C194.091 239.703 192.197 241.541 191.25 243.799C190.671 245.164 190.408 246.635 190.566 248.105C190.934 251.098 193.407 253.672 196.353 254.197C199.299 254.827 202.508 253.304 203.981 250.625Z" fill="#FCBF49"/>
<path d="M49.4595 217.358C49.3033 217.392 49.2113 217.347 49.1836 217.222L48.622 214.692C48.3447 213.442 48.3486 212.13 48.6336 210.756C48.9429 209.343 49.4865 208.026 50.2643 206.805C50.9935 205.659 51.5213 204.788 51.8478 204.191C52.1673 203.563 52.341 203.017 52.3689 202.552C52.3968 202.086 52.3449 201.557 52.2132 200.964C51.9705 199.87 51.4414 199.037 50.626 198.464C49.8035 197.86 48.8925 197.669 47.8928 197.891C46.8931 198.112 46.1328 198.675 45.6119 199.577C45.1153 200.441 44.9884 201.42 45.231 202.513L45.9901 205.934C46.0179 206.059 45.9693 206.135 45.8443 206.163L40.5491 207.338C40.4242 207.366 40.3478 207.317 40.3201 207.192L39.561 203.771C39.1727 202.022 39.2253 200.339 39.7186 198.721C40.2432 197.097 41.0992 195.711 42.2865 194.562C43.5052 193.407 44.9579 192.642 46.6449 192.267C48.3319 191.893 49.9562 191.975 51.518 192.514C53.1109 193.045 54.473 193.939 55.6042 195.196C56.7353 196.453 57.495 197.956 57.8832 199.705C58.112 200.736 58.2072 201.682 58.1687 202.543C58.1234 203.372 57.901 204.29 57.5015 205.297C57.0952 206.272 56.4561 207.528 55.5845 209.066C54.9768 210.02 54.5705 210.848 54.3655 211.549C54.1918 212.243 54.1881 212.965 54.3545 213.715L54.8536 215.964C54.8814 216.089 54.8171 216.169 54.6609 216.203L49.4595 217.358ZM51.3729 225.98C51.2167 226.014 51.1213 225.954 51.0866 225.797L49.9323 220.596C49.9046 220.471 49.9688 220.391 50.125 220.357L55.3265 219.202C55.4827 219.168 55.5746 219.213 55.6024 219.338L56.7567 224.539C56.7913 224.695 56.7305 224.791 56.5743 224.825L51.3729 225.98ZM65.6997 213.754C65.5748 213.781 65.4794 213.721 65.4134 213.571L62.0376 203.012L59.2091 190.266C59.1744 190.11 59.2195 190.018 59.3445 189.99L64.5928 188.825C64.749 188.791 64.8445 188.851 64.8791 189.008L67.6608 201.764L69.0685 212.76C69.072 212.923 69.0112 213.019 68.8862 213.046L65.6997 213.754ZM66.5823 222.605C66.4573 222.632 66.3775 222.568 66.3428 222.412L65.2093 217.304C65.1816 217.179 65.2302 217.103 65.3552 217.075L70.6035 215.91C70.7284 215.883 70.8048 215.931 70.8325 216.056L71.966 221.164C72.0007 221.32 71.9555 221.412 71.8306 221.44L66.5823 222.605Z" fill="#FCBF49"/>
</g>
<path d="M284.765 173.235C284.617 173.174 284.567 173.084 284.617 172.966L285.611 170.572C286.102 169.39 286.859 168.319 287.882 167.357C288.946 166.379 290.148 165.613 291.486 165.06C292.741 164.542 293.674 164.132 294.284 163.831C294.906 163.501 295.362 163.153 295.652 162.789C295.942 162.424 296.204 161.961 296.437 161.399C296.867 160.365 296.913 159.379 296.574 158.442C296.248 157.475 295.612 156.795 294.667 156.402C293.721 156.009 292.776 156.032 291.831 156.472C290.928 156.894 290.262 157.622 289.832 158.656L288.488 161.892C288.439 162.01 288.356 162.045 288.237 161.996L283.228 159.915C283.11 159.866 283.075 159.783 283.125 159.664L284.469 156.428C285.156 154.773 286.166 153.426 287.499 152.385C288.862 151.357 290.359 150.715 291.99 150.457C293.652 150.211 295.28 150.42 296.876 151.083C298.472 151.745 299.754 152.746 300.723 154.084C301.722 155.434 302.323 156.948 302.526 158.627C302.73 160.305 302.488 161.972 301.801 163.627C301.396 164.602 300.93 165.431 300.404 166.114C299.891 166.766 299.181 167.39 298.276 167.984C297.383 168.549 296.138 169.21 294.542 169.968C293.496 170.4 292.688 170.844 292.117 171.3C291.576 171.768 291.159 172.357 290.864 173.066L289.98 175.194C289.931 175.312 289.833 175.34 289.685 175.279L284.765 173.235ZM281.377 181.392C281.229 181.331 281.186 181.226 281.247 181.078L283.291 176.158C283.34 176.039 283.439 176.011 283.586 176.072L288.507 178.116C288.655 178.177 288.704 178.267 288.655 178.385L286.611 183.306C286.55 183.454 286.445 183.497 286.297 183.436L281.377 181.392ZM300.128 179.616C300.009 179.567 299.966 179.462 299.998 179.302L303.302 168.72L308.309 156.663C308.371 156.515 308.461 156.466 308.579 156.515L313.544 158.577C313.691 158.638 313.735 158.743 313.673 158.891L308.621 170.93L303.456 180.738C303.365 180.874 303.26 180.917 303.142 180.868L300.128 179.616ZM295.765 187.368C295.647 187.318 295.618 187.22 295.679 187.072L297.686 182.24C297.735 182.122 297.819 182.088 297.937 182.137L302.902 184.199C303.02 184.248 303.055 184.332 303.006 184.45L300.999 189.282C300.938 189.429 300.848 189.479 300.73 189.43L295.765 187.368Z" fill="#FCBF49"/>
<path d="M10.5239 46C10.2679 46 10.1399 45.888 10.1399 45.664L10.0919 12.976C10.0919 12.72 10.2199 12.592 10.4759 12.592H14.7959L22.9079 31.504L22.6679 12.976C22.6679 12.72 22.8119 12.592 23.0999 12.592H27.8519C28.0439 12.592 28.1399 12.72 28.1399 12.976L28.1879 45.712C28.1879 45.904 28.1079 46 27.9479 46H23.7239L15.4199 28.336L15.7559 45.616C15.7559 45.872 15.6119 46 15.3239 46H10.5239ZM41.2375 46.48C39.5095 46.48 37.9255 46.048 36.4855 45.184C35.0775 44.288 33.9415 43.12 33.0775 41.68C32.2135 40.208 31.7815 38.592 31.7815 36.832L31.8295 21.616C31.8295 19.856 32.2455 18.256 33.0775 16.816C33.9415 15.376 35.0935 14.224 36.5335 13.36C37.9735 12.496 39.5415 12.064 41.2375 12.064C42.9655 12.064 44.5335 12.496 45.9415 13.36C47.3495 14.224 48.4695 15.376 49.3015 16.816C50.1655 18.256 50.5975 19.856 50.5975 21.616L50.6455 36.832C50.6455 38.592 50.2135 40.208 49.3495 41.68C48.5175 43.12 47.3815 44.288 45.9415 45.184C44.5335 46.048 42.9655 46.48 41.2375 46.48ZM41.2375 40.672C42.1975 40.672 43.0295 40.288 43.7335 39.52C44.4695 38.72 44.8375 37.824 44.8375 36.832L44.7895 21.616C44.7895 20.56 44.4535 19.664 43.7815 18.928C43.1095 18.192 42.2615 17.824 41.2375 17.824C40.2455 17.824 39.3975 18.192 38.6935 18.928C37.9895 19.632 37.6375 20.528 37.6375 21.616V36.832C37.6375 37.888 37.9895 38.8 38.6935 39.568C39.3975 40.304 40.2455 40.672 41.2375 40.672ZM66.22 46C66.092 46 66.028 45.92 66.028 45.76V18.4H59.788C59.628 18.4 59.548 18.32 59.548 18.16L59.596 12.784C59.596 12.656 59.66 12.592 59.788 12.592H78.028C78.188 12.592 78.268 12.656 78.268 12.784V18.16C78.268 18.32 78.204 18.4 78.076 18.4H71.788L71.836 45.76C71.836 45.92 71.772 46 71.644 46H66.22ZM77.2724 45.76L83.2244 12.784C83.2564 12.656 83.3364 12.592 83.4644 12.592H90.4244C90.5524 12.592 90.6324 12.656 90.6644 12.784L96.3764 45.76C96.4084 45.92 96.3444 46 96.1844 46H90.8564C90.7284 46 90.6484 45.92 90.6164 45.76L90.0884 42.256H83.5604L83.0324 45.76C83.0004 45.92 82.9204 46 82.7924 46H77.4644C77.3364 46 77.2724 45.92 77.2724 45.76ZM84.5204 37.12H89.1284L87.1604 23.632L86.8724 21.856L86.6804 23.632L84.5204 37.12ZM106.611 46.48C104.883 46.48 103.299 46.048 101.859 45.184C100.451 44.288 99.3153 43.12 98.4513 41.68C97.6193 40.208 97.2033 38.592 97.2033 36.832V34.624C97.2033 34.464 97.2833 34.384 97.4433 34.384H102.819C102.947 34.384 103.011 34.464 103.011 34.624V36.832C103.011 37.888 103.363 38.8 104.067 39.568C104.771 40.304 105.619 40.672 106.611 40.672C107.603 40.672 108.451 40.288 109.155 39.52C109.859 38.752 110.211 37.856 110.211 36.832C110.211 35.648 109.443 34.624 107.907 33.76C107.395 33.472 106.595 33.024 105.507 32.416C104.419 31.808 103.395 31.232 102.435 30.688C100.675 29.664 99.3633 28.384 98.4993 26.848C97.6673 25.28 97.2513 23.52 97.2513 21.568C97.2513 19.776 97.6833 18.176 98.5473 16.768C99.4113 15.328 100.547 14.192 101.955 13.36C103.395 12.528 104.947 12.112 106.611 12.112C108.307 12.112 109.859 12.544 111.267 13.408C112.707 14.24 113.843 15.376 114.675 16.816C115.539 18.224 115.971 19.808 115.971 21.568V25.504C115.971 25.632 115.907 25.696 115.779 25.696H110.403C110.275 25.696 110.211 25.632 110.211 25.504L110.163 21.568C110.163 20.448 109.811 19.536 109.107 18.832C108.403 18.128 107.571 17.776 106.611 17.776C105.619 17.776 104.771 18.16 104.067 18.928C103.363 19.664 103.011 20.544 103.011 21.568C103.011 22.624 103.235 23.504 103.683 24.208C104.131 24.912 104.947 25.584 106.131 26.224C106.291 26.32 106.595 26.496 107.043 26.752C107.523 26.976 108.035 27.248 108.579 27.568C109.123 27.856 109.603 28.112 110.019 28.336C110.467 28.56 110.739 28.704 110.835 28.768C112.435 29.664 113.699 30.768 114.627 32.08C115.555 33.36 116.019 34.944 116.019 36.832C116.019 38.656 115.587 40.304 114.723 41.776C113.891 43.216 112.755 44.368 111.315 45.232C109.907 46.064 108.339 46.48 106.611 46.48ZM119.55 46C119.422 46 119.358 45.92 119.358 45.76L119.454 12.832C119.454 12.672 119.518 12.592 119.646 12.592H125.022C125.15 12.592 125.214 12.672 125.214 12.832V24.208L132.75 12.784C132.846 12.656 132.958 12.592 133.086 12.592H138.606C138.734 12.592 138.766 12.656 138.702 12.784L130.398 26.032L139.71 45.808C139.774 45.936 139.694 46 139.47 46H133.614C133.454 46 133.358 45.936 133.326 45.808L126.846 31.696L125.166 34.336V45.76C125.166 45.92 125.102 46 124.974 46H119.55ZM148.189 46.48C146.461 46.48 144.877 46.048 143.437 45.184C142.029 44.288 140.893 43.12 140.029 41.68C139.197 40.208 138.781 38.592 138.781 36.832V34.624C138.781 34.464 138.861 34.384 139.021 34.384H144.397C144.525 34.384 144.589 34.464 144.589 34.624V36.832C144.589 37.888 144.941 38.8 145.645 39.568C146.349 40.304 147.197 40.672 148.189 40.672C149.181 40.672 150.029 40.288 150.733 39.52C151.437 38.752 151.789 37.856 151.789 36.832C151.789 35.648 151.021 34.624 149.485 33.76C148.973 33.472 148.173 33.024 147.085 32.416C145.997 31.808 144.973 31.232 144.013 30.688C142.253 29.664 140.941 28.384 140.077 26.848C139.245 25.28 138.829 23.52 138.829 21.568C138.829 19.776 139.261 18.176 140.125 16.768C140.989 15.328 142.125 14.192 143.533 13.36C144.973 12.528 146.525 12.112 148.189 12.112C149.885 12.112 151.437 12.544 152.845 13.408C154.285 14.24 155.421 15.376 156.253 16.816C157.117 18.224 157.549 19.808 157.549 21.568V25.504C157.549 25.632 157.485 25.696 157.357 25.696H151.981C151.853 25.696 151.789 25.632 151.789 25.504L151.741 21.568C151.741 20.448 151.389 19.536 150.685 18.832C149.981 18.128 149.149 17.776 148.189 17.776C147.197 17.776 146.349 18.16 145.645 18.928C144.941 19.664 144.589 20.544 144.589 21.568C144.589 22.624 144.813 23.504 145.261 24.208C145.709 24.912 146.525 25.584 147.709 26.224C147.869 26.32 148.173 26.496 148.621 26.752C149.101 26.976 149.613 27.248 150.157 27.568C150.701 27.856 151.181 28.112 151.597 28.336C152.045 28.56 152.317 28.704 152.413 28.768C154.013 29.664 155.277 30.768 156.205 32.08C157.133 33.36 157.597 34.944 157.597 36.832C157.597 38.656 157.165 40.304 156.301 41.776C155.469 43.216 154.333 44.368 152.893 45.232C151.485 46.064 149.917 46.48 148.189 46.48ZM176.941 46.48C175.213 46.48 173.629 46.048 172.189 45.184C170.781 44.288 169.645 43.12 168.781 41.68C167.917 40.208 167.485 38.592 167.485 36.832L167.533 21.616C167.533 19.856 167.949 18.256 168.781 16.816C169.645 15.376 170.797 14.224 172.237 13.36C173.677 12.496 175.245 12.064 176.941 12.064C178.669 12.064 180.237 12.496 181.645 13.36C183.053 14.224 184.173 15.376 185.005 16.816C185.869 18.256 186.301 19.856 186.301 21.616L186.349 36.832C186.349 38.592 185.917 40.208 185.053 41.68C184.221 43.12 183.085 44.288 181.645 45.184C180.237 46.048 178.669 46.48 176.941 46.48ZM176.941 40.672C177.901 40.672 178.733 40.288 179.437 39.52C180.173 38.72 180.541 37.824 180.541 36.832L180.493 21.616C180.493 20.56 180.157 19.664 179.485 18.928C178.813 18.192 177.965 17.824 176.941 17.824C175.949 17.824 175.101 18.192 174.397 18.928C173.693 19.632 173.341 20.528 173.341 21.616V36.832C173.341 37.888 173.693 38.8 174.397 39.568C175.101 40.304 175.949 40.672 176.941 40.672ZM190.19 46C190.062 46 189.998 45.92 189.998 45.76L190.094 12.784C190.094 12.656 190.158 12.592 190.286 12.592H199.982C201.71 12.592 203.294 13.024 204.734 13.888C206.206 14.72 207.374 15.856 208.238 17.296C209.102 18.704 209.534 20.304 209.534 22.096C209.534 23.28 209.358 24.352 209.006 25.312C208.654 26.24 208.238 27.04 207.758 27.712C207.278 28.352 206.846 28.832 206.462 29.152C208.19 31.072 209.054 33.328 209.054 35.92L209.102 45.76C209.102 45.92 209.022 46 208.862 46H203.438C203.31 46 203.246 45.952 203.246 45.856V35.92C203.246 34.768 202.83 33.776 201.998 32.944C201.198 32.08 200.206 31.648 199.022 31.648H195.854L195.806 45.76C195.806 45.92 195.742 46 195.614 46H190.19ZM195.854 25.888H199.982C200.974 25.888 201.854 25.52 202.622 24.784C203.39 24.048 203.774 23.152 203.774 22.096C203.774 21.072 203.39 20.192 202.622 19.456C201.886 18.72 201.006 18.352 199.982 18.352H195.854V25.888ZM220.519 46C220.359 46 220.279 45.92 220.279 45.76L220.375 12.784C220.375 12.656 220.439 12.592 220.567 12.592H229.783C232.727 12.592 235.047 13.488 236.743 15.28C238.471 17.072 239.335 19.504 239.335 22.576C239.335 24.848 238.887 26.816 237.991 28.48C237.095 30.144 235.927 31.424 234.487 32.32C233.047 33.216 231.479 33.664 229.783 33.664H226.135V45.76C226.135 45.92 226.055 46 225.895 46H220.519ZM226.135 27.856H229.783C230.807 27.856 231.687 27.376 232.423 26.416C233.191 25.424 233.575 24.144 233.575 22.576C233.575 21.328 233.239 20.304 232.567 19.504C231.895 18.704 230.967 18.304 229.783 18.304L226.135 18.352V27.856ZM242.784 46C242.656 46 242.592 45.92 242.592 45.76L242.688 12.784C242.688 12.656 242.752 12.592 242.88 12.592H252.576C254.304 12.592 255.888 13.024 257.328 13.888C258.8 14.72 259.968 15.856 260.832 17.296C261.696 18.704 262.128 20.304 262.128 22.096C262.128 23.28 261.952 24.352 261.6 25.312C261.248 26.24 260.832 27.04 260.352 27.712C259.872 28.352 259.44 28.832 259.056 29.152C260.784 31.072 261.648 33.328 261.648 35.92L261.696 45.76C261.696 45.92 261.616 46 261.456 46H256.032C255.904 46 255.84 45.952 255.84 45.856V35.92C255.84 34.768 255.424 33.776 254.592 32.944C253.792 32.08 252.8 31.648 251.616 31.648H248.448L248.4 45.76C248.4 45.92 248.336 46 248.208 46H242.784ZM248.448 25.888H252.576C253.568 25.888 254.448 25.52 255.216 24.784C255.984 24.048 256.368 23.152 256.368 22.096C256.368 21.072 255.984 20.192 255.216 19.456C254.48 18.72 253.6 18.352 252.576 18.352H248.448V25.888ZM274.394 46.48C272.666 46.48 271.082 46.048 269.642 45.184C268.234 44.288 267.098 43.12 266.234 41.68C265.37 40.208 264.938 38.592 264.938 36.832L264.986 21.616C264.986 19.856 265.402 18.256 266.234 16.816C267.098 15.376 268.25 14.224 269.69 13.36C271.13 12.496 272.698 12.064 274.394 12.064C276.122 12.064 277.69 12.496 279.098 13.36C280.506 14.224 281.626 15.376 282.458 16.816C283.322 18.256 283.754 19.856 283.754 21.616L283.802 36.832C283.802 38.592 283.37 40.208 282.506 41.68C281.674 43.12 280.538 44.288 279.098 45.184C277.69 46.048 276.122 46.48 274.394 46.48ZM274.394 40.672C275.354 40.672 276.186 40.288 276.89 39.52C277.626 38.72 277.994 37.824 277.994 36.832L277.946 21.616C277.946 20.56 277.61 19.664 276.938 18.928C276.266 18.192 275.418 17.824 274.394 17.824C273.402 17.824 272.554 18.192 271.85 18.928C271.146 19.632 270.794 20.528 270.794 21.616V36.832C270.794 37.888 271.146 38.8 271.85 39.568C272.554 40.304 273.402 40.672 274.394 40.672ZM295.323 46.48C293.531 46.48 291.915 46.064 290.475 45.232C289.067 44.368 287.947 43.2 287.115 41.728C286.315 40.224 285.915 38.544 285.915 36.688V34.48C285.915 34.352 285.979 34.288 286.107 34.288H291.531C291.659 34.288 291.723 34.368 291.723 34.528V36.688C291.723 37.872 292.059 38.832 292.731 39.568C293.403 40.304 294.267 40.672 295.323 40.672C296.283 40.672 297.115 40.272 297.819 39.472C298.523 38.672 298.875 37.744 298.875 36.688V12.832C298.875 12.704 298.939 12.64 299.067 12.64H304.443C304.571 12.64 304.635 12.72 304.635 12.88L304.683 36.688C304.683 38.448 304.251 40.08 303.387 41.584C302.555 43.056 301.435 44.24 300.027 45.136C298.619 46.032 297.051 46.48 295.323 46.48ZM308.503 46C308.375 46 308.311 45.92 308.311 45.76L308.359 12.784C308.359 12.656 308.423 12.592 308.551 12.592H323.959C324.087 12.592 324.151 12.672 324.151 12.832V18.208C324.151 18.336 324.087 18.4 323.959 18.4H314.119V25.888H323.959C324.087 25.888 324.151 25.952 324.151 26.08L324.199 31.504C324.199 31.632 324.135 31.696 324.007 31.696H314.119V40.096H324.007C324.135 40.096 324.199 40.176 324.199 40.336V45.808C324.199 45.936 324.135 46 324.007 46H308.503ZM336.549 46.48C334.789 46.48 333.189 46.048 331.749 45.184C330.341 44.288 329.221 43.104 328.389 41.632C327.557 40.16 327.141 38.512 327.141 36.688L327.189 21.712C327.189 19.952 327.589 18.352 328.389 16.912C329.221 15.44 330.341 14.272 331.749 13.408C333.189 12.512 334.789 12.064 336.549 12.064C338.309 12.064 339.893 12.496 341.301 13.36C342.709 14.224 343.829 15.392 344.661 16.864C345.493 18.304 345.909 19.92 345.909 21.712V23.92C345.909 24.048 345.845 24.112 345.717 24.112H340.341C340.213 24.112 340.149 24.048 340.149 23.92V21.712C340.149 20.656 339.797 19.744 339.093 18.976C338.421 18.208 337.573 17.824 336.549 17.824C335.397 17.824 334.517 18.224 333.909 19.024C333.301 19.792 332.997 20.688 332.997 21.712V36.688C332.997 37.872 333.333 38.832 334.005 39.568C334.709 40.304 335.557 40.672 336.549 40.672C337.573 40.672 338.421 40.272 339.093 39.472C339.797 38.64 340.149 37.712 340.149 36.688V34.48C340.149 34.352 340.213 34.288 340.341 34.288H345.765C345.893 34.288 345.957 34.352 345.957 34.48V36.688C345.957 38.512 345.525 40.16 344.661 41.632C343.829 43.104 342.709 44.288 341.301 45.184C339.893 46.048 338.309 46.48 336.549 46.48ZM353.658 46C353.53 46 353.466 45.92 353.466 45.76V18.4H347.226C347.066 18.4 346.986 18.32 346.986 18.16L347.034 12.784C347.034 12.656 347.098 12.592 347.226 12.592H365.466C365.626 12.592 365.706 12.656 365.706 12.784V18.16C365.706 18.32 365.642 18.4 365.514 18.4H359.226L359.273 45.76C359.273 45.92 359.21 46 359.082 46H353.658ZM376.002 46.48C374.274 46.48 372.69 46.048 371.25 45.184C369.842 44.288 368.706 43.12 367.842 41.68C367.01 40.208 366.594 38.592 366.594 36.832V34.624C366.594 34.464 366.674 34.384 366.834 34.384H372.21C372.338 34.384 372.402 34.464 372.402 34.624V36.832C372.402 37.888 372.754 38.8 373.458 39.568C374.162 40.304 375.01 40.672 376.002 40.672C376.994 40.672 377.842 40.288 378.546 39.52C379.25 38.752 379.602 37.856 379.602 36.832C379.602 35.648 378.834 34.624 377.298 33.76C376.786 33.472 375.986 33.024 374.898 32.416C373.81 31.808 372.786 31.232 371.826 30.688C370.066 29.664 368.754 28.384 367.89 26.848C367.058 25.28 366.642 23.52 366.642 21.568C366.642 19.776 367.074 18.176 367.938 16.768C368.802 15.328 369.938 14.192 371.346 13.36C372.786 12.528 374.338 12.112 376.002 12.112C377.698 12.112 379.25 12.544 380.658 13.408C382.098 14.24 383.234 15.376 384.066 16.816C384.93 18.224 385.362 19.808 385.362 21.568V25.504C385.362 25.632 385.298 25.696 385.17 25.696H379.794C379.666 25.696 379.602 25.632 379.602 25.504L379.554 21.568C379.554 20.448 379.202 19.536 378.498 18.832C377.794 18.128 376.962 17.776 376.002 17.776C375.01 17.776 374.162 18.16 373.458 18.928C372.754 19.664 372.402 20.544 372.402 21.568C372.402 22.624 372.626 23.504 373.074 24.208C373.522 24.912 374.338 25.584 375.522 26.224C375.682 26.32 375.986 26.496 376.434 26.752C376.914 26.976 377.426 27.248 377.97 27.568C378.514 27.856 378.994 28.112 379.41 28.336C379.858 28.56 380.13 28.704 380.226 28.768C381.826 29.664 383.09 30.768 384.018 32.08C384.946 33.36 385.41 34.944 385.41 36.832C385.41 38.656 384.978 40.304 384.114 41.776C383.282 43.216 382.146 44.368 380.706 45.232C379.298 46.064 377.73 46.48 376.002 46.48ZM73.9786 106.48C72.2186 106.48 70.6186 106.048 69.1786 105.184C67.7706 104.288 66.6506 103.104 65.8186 101.632C64.9866 100.16 64.5706 98.512 64.5706 96.688L64.6186 81.712C64.6186 79.952 65.0186 78.352 65.8186 76.912C66.6506 75.44 67.7706 74.272 69.1786 73.408C70.6186 72.512 72.2186 72.064 73.9786 72.064C75.7386 72.064 77.3226 72.496 78.7306 73.36C80.1386 74.224 81.2586 75.392 82.0906 76.864C82.9226 78.304 83.3386 79.92 83.3386 81.712V83.92C83.3386 84.048 83.2746 84.112 83.1466 84.112H77.7706C77.6426 84.112 77.5786 84.048 77.5786 83.92V81.712C77.5786 80.656 77.2266 79.744 76.5226 78.976C75.8506 78.208 75.0026 77.824 73.9786 77.824C72.8266 77.824 71.9466 78.224 71.3386 79.024C70.7306 79.792 70.4266 80.688 70.4266 81.712V96.688C70.4266 97.872 70.7626 98.832 71.4346 99.568C72.1386 100.304 72.9866 100.672 73.9786 100.672C75.0026 100.672 75.8506 100.272 76.5226 99.472C77.2266 98.64 77.5786 97.712 77.5786 96.688V94.48C77.5786 94.352 77.6426 94.288 77.7706 94.288H83.1946C83.3226 94.288 83.3866 94.352 83.3866 94.48V96.688C83.3866 98.512 82.9546 100.16 82.0906 101.632C81.2586 103.104 80.1386 104.288 78.7306 105.184C77.3226 106.048 75.7386 106.48 73.9786 106.48ZM95.7766 106.48C94.0486 106.48 92.4646 106.048 91.0246 105.184C89.6166 104.288 88.4806 103.12 87.6166 101.68C86.7526 100.208 86.3206 98.592 86.3206 96.832L86.3686 81.616C86.3686 79.856 86.7846 78.256 87.6166 76.816C88.4806 75.376 89.6326 74.224 91.0726 73.36C92.5126 72.496 94.0806 72.064 95.7766 72.064C97.5046 72.064 99.0726 72.496 100.481 73.36C101.889 74.224 103.009 75.376 103.841 76.816C104.705 78.256 105.137 79.856 105.137 81.616L105.185 96.832C105.185 98.592 104.753 100.208 103.889 101.68C103.057 103.12 101.921 104.288 100.481 105.184C99.0726 106.048 97.5046 106.48 95.7766 106.48ZM95.7766 100.672C96.7366 100.672 97.5686 100.288 98.2726 99.52C99.0086 98.72 99.3766 97.824 99.3766 96.832L99.3286 81.616C99.3286 80.56 98.9926 79.664 98.3206 78.928C97.6486 78.192 96.8006 77.824 95.7766 77.824C94.7846 77.824 93.9366 78.192 93.2326 78.928C92.5286 79.632 92.1766 80.528 92.1766 81.616V96.832C92.1766 97.888 92.5286 98.8 93.2326 99.568C93.9366 100.304 94.7846 100.672 95.7766 100.672ZM109.026 106C108.898 106 108.834 105.92 108.834 105.76L108.93 72.784C108.93 72.656 108.994 72.592 109.122 72.592H114.978C115.106 72.592 115.218 72.656 115.314 72.784L119.682 79.12L124.05 72.784C124.146 72.656 124.258 72.592 124.386 72.592H130.29C130.418 72.592 130.482 72.656 130.482 72.784L130.578 105.76C130.578 105.92 130.514 106 130.386 106H124.962C124.834 106 124.77 105.92 124.77 105.76L124.722 81.28L119.682 88.576L114.69 81.28L114.642 105.76C114.642 105.92 114.578 106 114.45 106H109.026ZM134.855 106C134.695 106 134.615 105.92 134.615 105.76L134.711 72.784C134.711 72.656 134.775 72.592 134.903 72.592H144.119C147.063 72.592 149.383 73.488 151.079 75.28C152.807 77.072 153.671 79.504 153.671 82.576C153.671 84.848 153.223 86.816 152.327 88.48C151.431 90.144 150.263 91.424 148.823 92.32C147.383 93.216 145.815 93.664 144.119 93.664H140.471V105.76C140.471 105.92 140.391 106 140.231 106H134.855ZM140.471 87.856H144.119C145.143 87.856 146.023 87.376 146.759 86.416C147.527 85.424 147.911 84.144 147.911 82.576C147.911 81.328 147.575 80.304 146.903 79.504C146.231 78.704 145.303 78.304 144.119 78.304L140.471 78.352V87.856ZM157.12 106C156.992 106 156.928 105.92 156.928 105.76L156.976 72.832C156.976 72.672 157.056 72.592 157.216 72.592H162.544C162.704 72.592 162.784 72.672 162.784 72.832L162.736 100.096H172.624C172.784 100.096 172.864 100.176 172.864 100.336V105.76C172.864 105.92 172.784 106 172.624 106H157.12ZM176.198 106C176.07 106 176.006 105.92 176.006 105.76L176.054 72.784C176.054 72.656 176.118 72.592 176.246 72.592H191.654C191.782 72.592 191.846 72.672 191.846 72.832V78.208C191.846 78.336 191.782 78.4 191.654 78.4H181.814V85.888H191.654C191.782 85.888 191.846 85.952 191.846 86.08L191.894 91.504C191.894 91.632 191.83 91.696 191.702 91.696H181.814V100.096H191.702C191.83 100.096 191.894 100.176 191.894 100.336V105.808C191.894 105.936 191.83 106 191.702 106H176.198ZM200.962 106C200.834 106 200.77 105.92 200.77 105.76V78.4H194.53C194.37 78.4 194.29 78.32 194.29 78.16L194.338 72.784C194.338 72.656 194.402 72.592 194.53 72.592H212.77C212.93 72.592 213.01 72.656 213.01 72.784V78.16C213.01 78.32 212.946 78.4 212.818 78.4H206.53L206.578 105.76C206.578 105.92 206.514 106 206.386 106H200.962ZM215.573 106C215.445 106 215.381 105.92 215.381 105.76L215.429 72.784C215.429 72.656 215.493 72.592 215.621 72.592H231.029C231.157 72.592 231.221 72.672 231.221 72.832V78.208C231.221 78.336 231.157 78.4 231.029 78.4H221.189V85.888H231.029C231.157 85.888 231.221 85.952 231.221 86.08L231.269 91.504C231.269 91.632 231.205 91.696 231.077 91.696H221.189V100.096H231.077C231.205 100.096 231.269 100.176 231.269 100.336V105.808C231.269 105.936 231.205 106 231.077 106H215.573ZM235.777 106C235.617 106 235.537 105.92 235.537 105.76L235.633 72.784C235.633 72.656 235.697 72.592 235.825 72.592L244.801 72.544C246.561 72.512 248.161 72.928 249.601 73.792C251.073 74.656 252.241 75.824 253.105 77.296C253.969 78.736 254.401 80.336 254.401 82.096V95.872C254.401 97.728 253.953 99.424 253.057 100.96C252.161 102.464 250.961 103.664 249.457 104.56C247.953 105.456 246.257 105.92 244.369 105.952L235.777 106ZM241.393 100.096H244.369C245.553 100.096 246.545 99.68 247.345 98.848C248.177 98.016 248.593 97.024 248.593 95.872V82.048C248.593 81.024 248.209 80.144 247.441 79.408C246.705 78.64 245.825 78.272 244.801 78.304L241.441 78.352L241.393 100.096ZM269.767 106C269.671 106 269.623 105.936 269.623 105.808L269.671 92.176L263.239 72.784C263.207 72.656 263.255 72.592 263.383 72.592H268.711C268.871 72.592 268.967 72.656 268.999 72.784L272.551 85.696L276.151 72.784C276.183 72.656 276.263 72.592 276.391 72.592H281.767C281.895 72.592 281.943 72.656 281.911 72.784L275.431 91.984L275.479 105.808C275.479 105.936 275.415 106 275.287 106H269.767ZM284.76 106C284.632 106 284.568 105.92 284.568 105.76L284.616 72.784C284.616 72.656 284.68 72.592 284.808 72.592H300.216C300.344 72.592 300.408 72.672 300.408 72.832V78.208C300.408 78.336 300.344 78.4 300.216 78.4H290.376V85.888H300.216C300.344 85.888 300.408 85.952 300.408 86.08L300.456 91.504C300.456 91.632 300.392 91.696 300.264 91.696H290.376V100.096H300.264C300.392 100.096 300.456 100.176 300.456 100.336V105.808C300.456 105.936 300.392 106 300.264 106H284.76ZM309.525 106C309.397 106 309.333 105.92 309.333 105.76V78.4H303.093C302.933 78.4 302.853 78.32 302.853 78.16L302.901 72.784C302.901 72.656 302.965 72.592 303.093 72.592H321.333C321.493 72.592 321.573 72.656 321.573 72.784V78.16C321.573 78.32 321.509 78.4 321.381 78.4H315.093L315.141 105.76C315.141 105.92 315.077 106 314.949 106H309.525ZM325.191 97.168C325.063 97.168 324.983 97.088 324.951 96.928L323.943 85.888V72.832C323.943 72.672 324.007 72.592 324.135 72.592H329.511C329.671 72.592 329.751 72.672 329.751 72.832L329.703 85.888L328.695 96.928C328.663 97.088 328.583 97.168 328.455 97.168H325.191ZM324.135 106C324.007 106 323.943 105.92 323.943 105.76V100.528C323.943 100.4 324.007 100.336 324.135 100.336H329.511C329.639 100.336 329.703 100.4 329.703 100.528V105.76C329.703 105.92 329.639 106 329.511 106H324.135Z" fill="#F77F00"/>
<defs>
<linearGradient id="paint0_linear_147_2411" x1="115.231" y1="449.878" x2="340.608" y2="449.878" gradientUnits="userSpaceOnUse">
<stop stop-color="#4D4D4D"/>
<stop offset="1"/>
</linearGradient>
<linearGradient id="paint1_linear_147_2411" x1="115.231" y1="449.878" x2="340.608" y2="449.878" gradientUnits="userSpaceOnUse">
<stop/>
<stop offset="1"/>
</linearGradient>
<clipPath id="clip0_147_2411">
<rect width="320" height="281.846" fill="white" transform="translate(25 183)"/>
</clipPath>
</defs>
</svg>
