<svg width="248" height="337" viewBox="0 0 248 337" fill="none" xmlns="http://www.w3.org/2000/svg">
<path d="M240 232.974C240 292.556 183.537 336.517 118.476 336.517C53.4149 336.517 8.42248 278.545 0.672278 220.884C-7.07793 163.222 53.4149 113 118.476 113C206.519 113 240 173.391 240 232.974Z" fill="#DFECD4"/>
<path d="M66.3423 203.279C90.6098 222.278 101.118 234.924 115.287 260.066C146.316 218.698 189.537 164.904 239.948 125.4" stroke="#72B01D" stroke-width="24"/>
<path d="M16.352 46C16.096 46 15.968 45.888 15.968 45.664L15.92 12.976C15.92 12.72 16.048 12.592 16.304 12.592H20.624L28.736 31.504L28.496 12.976C28.496 12.72 28.64 12.592 28.928 12.592H33.68C33.872 12.592 33.968 12.72 33.968 12.976L34.016 45.712C34.016 45.904 33.936 46 33.776 46H29.552L21.248 28.336L21.584 45.616C21.584 45.872 21.44 46 21.152 46H16.352ZM47.0656 46.48C45.3376 46.48 43.7536 46.048 42.3136 45.184C40.9056 44.288 39.7696 43.12 38.9056 41.68C38.0416 40.208 37.6096 38.592 37.6096 36.832L37.6576 21.616C37.6576 19.856 38.0736 18.256 38.9056 16.816C39.7696 15.376 40.9216 14.224 42.3616 13.36C43.8016 12.496 45.3696 12.064 47.0656 12.064C48.7936 12.064 50.3616 12.496 51.7696 13.36C53.1776 14.224 54.2976 15.376 55.1296 16.816C55.9936 18.256 56.4256 19.856 56.4256 21.616L56.4736 36.832C56.4736 38.592 56.0416 40.208 55.1776 41.68C54.3456 43.12 53.2096 44.288 51.7696 45.184C50.3616 46.048 48.7936 46.48 47.0656 46.48ZM47.0656 40.672C48.0256 40.672 48.8576 40.288 49.5616 39.52C50.2976 38.72 50.6656 37.824 50.6656 36.832L50.6176 21.616C50.6176 20.56 50.2816 19.664 49.6096 18.928C48.9376 18.192 48.0896 17.824 47.0656 17.824C46.0736 17.824 45.2256 18.192 44.5216 18.928C43.8176 19.632 43.4656 20.528 43.4656 21.616V36.832C43.4656 37.888 43.8176 38.8 44.5216 39.568C45.2256 40.304 46.0736 40.672 47.0656 40.672ZM64.3138 46C64.1858 46 64.1218 45.92 64.1218 45.76V18.4H57.8818C57.7218 18.4 57.6418 18.32 57.6418 18.16L57.6898 12.784C57.6898 12.656 57.7538 12.592 57.8818 12.592H76.1218C76.2818 12.592 76.3618 12.656 76.3618 12.784V18.16C76.3618 18.32 76.2978 18.4 76.1698 18.4H69.8818L69.9297 45.76C69.9297 45.92 69.8658 46 69.7378 46H64.3138ZM78.9245 46C78.7965 46 78.7325 45.92 78.7325 45.76L78.7805 12.784C78.7805 12.656 78.8605 12.592 79.0205 12.592H84.3485C84.5085 12.592 84.5885 12.656 84.5885 12.784L84.5405 25.84H91.7405V12.784C91.7405 12.656 91.8045 12.592 91.9325 12.592H97.2605C97.4205 12.592 97.5005 12.656 97.5005 12.784L97.5965 45.76C97.5965 45.92 97.5165 46 97.3565 46H91.9805C91.8205 46 91.7405 45.92 91.7405 45.76V31.648H84.5405V45.76C84.5405 45.92 84.4765 46 84.3485 46H78.9245ZM101.754 46C101.594 46 101.514 45.92 101.514 45.76L101.562 12.784C101.562 12.656 101.626 12.592 101.754 12.592H107.13C107.258 12.592 107.322 12.656 107.322 12.784L107.37 45.76C107.37 45.92 107.306 46 107.178 46H101.754ZM112.024 46C111.768 46 111.64 45.888 111.64 45.664L111.592 12.976C111.592 12.72 111.72 12.592 111.976 12.592H116.296L124.408 31.504L124.168 12.976C124.168 12.72 124.312 12.592 124.6 12.592H129.352C129.544 12.592 129.64 12.72 129.64 12.976L129.688 45.712C129.688 45.904 129.608 46 129.448 46H125.224L116.92 28.336L117.256 45.616C117.256 45.872 117.112 46 116.824 46H112.024ZM142.642 46.48C140.914 46.48 139.346 46.048 137.938 45.184C136.53 44.32 135.394 43.168 134.53 41.728C133.698 40.256 133.282 38.624 133.282 36.832V21.616C133.282 19.888 133.698 18.304 134.53 16.864C135.394 15.392 136.53 14.224 137.938 13.36C139.378 12.496 140.946 12.064 142.642 12.064C144.402 12.064 145.986 12.496 147.394 13.36C148.834 14.192 149.97 15.328 150.802 16.768C151.634 18.208 152.05 19.824 152.05 21.616V23.824C152.05 23.952 151.97 24.016 151.81 24.016H146.434C146.306 24.016 146.242 23.952 146.242 23.824V22C146.242 20.784 145.89 19.776 145.186 18.976C144.514 18.176 143.666 17.776 142.642 17.776C141.714 17.776 140.882 18.16 140.146 18.928C139.442 19.696 139.09 20.592 139.09 21.616V36.832C139.09 37.888 139.442 38.8 140.146 39.568C140.85 40.304 141.682 40.672 142.642 40.672C143.666 40.672 144.514 40.304 145.186 39.568C145.89 38.832 146.242 37.92 146.242 36.832V34.48H142.882C142.722 34.48 142.642 34.4 142.642 34.24V28.864C142.642 28.704 142.722 28.624 142.882 28.624H151.858C151.986 28.624 152.05 28.704 152.05 28.864V36.832C152.05 38.624 151.618 40.256 150.754 41.728C149.922 43.168 148.802 44.32 147.394 45.184C145.986 46.048 144.402 46.48 142.642 46.48ZM162.832 46C162.672 46 162.592 45.92 162.592 45.76L162.688 12.784C162.688 12.656 162.752 12.592 162.88 12.592L171.856 12.544C173.616 12.512 175.216 12.928 176.656 13.792C178.128 14.656 179.296 15.824 180.16 17.296C181.024 18.736 181.456 20.336 181.456 22.096V35.872C181.456 37.728 181.008 39.424 180.112 40.96C179.216 42.464 178.016 43.664 176.512 44.56C175.008 45.456 173.312 45.92 171.424 45.952L162.832 46ZM168.448 40.096H171.424C172.608 40.096 173.6 39.68 174.4 38.848C175.232 38.016 175.648 37.024 175.648 35.872V22.048C175.648 21.024 175.264 20.144 174.496 19.408C173.76 18.64 172.88 18.272 171.856 18.304L168.496 18.352L168.448 40.096ZM193.924 46.48C192.228 46.48 190.66 46.048 189.22 45.184C187.78 44.288 186.628 43.104 185.764 41.632C184.932 40.16 184.516 38.544 184.516 36.784L184.612 12.784C184.612 12.656 184.676 12.592 184.804 12.592H190.18C190.308 12.592 190.372 12.656 190.372 12.784V36.784C190.372 37.872 190.708 38.8 191.38 39.568C192.084 40.304 192.932 40.672 193.924 40.672C194.948 40.672 195.796 40.304 196.468 39.568C197.172 38.8 197.524 37.872 197.524 36.784V12.784C197.524 12.656 197.588 12.592 197.716 12.592H203.092C203.22 12.592 203.284 12.656 203.284 12.784L203.38 36.784C203.38 38.576 202.948 40.208 202.084 41.68C201.252 43.152 200.116 44.32 198.676 45.184C197.268 46.048 195.684 46.48 193.924 46.48ZM207.362 46C207.234 46 207.17 45.92 207.17 45.76L207.218 12.784C207.218 12.656 207.282 12.592 207.41 12.592H222.818C222.946 12.592 223.01 12.672 223.01 12.832V18.208C223.01 18.336 222.946 18.4 222.818 18.4H212.978V25.888H222.818C222.946 25.888 223.01 25.952 223.01 26.08L223.058 31.504C223.058 31.632 222.994 31.696 222.866 31.696H212.978V40.096H222.866C222.994 40.096 223.058 40.176 223.058 40.336V45.808C223.058 45.936 222.994 46 222.866 46H207.362Z" fill="#72B01D"/>
</svg>
