<svg width="31" height="20" viewBox="0 0 31 20" fill="none" xmlns="http://www.w3.org/2000/svg">
<rect width="31" height="20" rx="4" fill="#F77F00"/>
<path d="M4.6321 6.72727H6.52841L8.53125 11.6136H8.61648L10.6193 6.72727H12.5156V14H11.0241V9.26634H10.9638L9.08168 13.9645H8.06605L6.18395 9.24858H6.12358V14H4.6321V6.72727ZM13.7825 14V6.72727H18.6831V7.99503H15.3201V9.72798H18.4309V10.9957H15.3201V12.7322H18.6973V14H13.7825ZM22.4837 14H19.9055V6.72727H22.505C23.2365 6.72727 23.8662 6.87287 24.3942 7.16406C24.9221 7.45289 25.3281 7.86837 25.6122 8.41051C25.8987 8.95265 26.0419 9.60133 26.0419 10.3565C26.0419 11.1141 25.8987 11.7652 25.6122 12.3097C25.3281 12.8542 24.9197 13.272 24.3871 13.5632C23.8568 13.8544 23.2223 14 22.4837 14ZM21.4432 12.6825H22.4197C22.8743 12.6825 23.2566 12.602 23.5668 12.4411C23.8793 12.2777 24.1136 12.0256 24.2699 11.6847C24.4285 11.3414 24.5078 10.8987 24.5078 10.3565C24.5078 9.81913 24.4285 9.37997 24.2699 9.03906C24.1136 8.69815 23.8804 8.44721 23.5703 8.28622C23.2602 8.12524 22.8778 8.04474 22.4233 8.04474H21.4432V12.6825Z" fill="#FFDCB8"/>
</svg>
