<svg width="32" height="20" viewBox="0 0 32 20" fill="none" xmlns="http://www.w3.org/2000/svg">
<rect width="32" height="20" rx="4" fill="#379FFF"/>
<path d="M4.6321 14V6.72727H6.16974V12.7322H9.28764V14H4.6321ZM16.706 10.3636C16.706 11.1567 16.5556 11.8314 16.255 12.3878C15.9567 12.9441 15.5495 13.3691 15.0334 13.6626C14.5196 13.9538 13.942 14.0994 13.3004 14.0994C12.6541 14.0994 12.0741 13.9527 11.5604 13.6591C11.0466 13.3655 10.6406 12.9406 10.3423 12.3842C10.044 11.8279 9.89489 11.1544 9.89489 10.3636C9.89489 9.57055 10.044 8.89583 10.3423 8.33949C10.6406 7.78314 11.0466 7.35937 11.5604 7.06818C12.0741 6.77462 12.6541 6.62784 13.3004 6.62784C13.942 6.62784 14.5196 6.77462 15.0334 7.06818C15.5495 7.35937 15.9567 7.78314 16.255 8.33949C16.5556 8.89583 16.706 9.57055 16.706 10.3636ZM15.147 10.3636C15.147 9.84991 15.0701 9.41667 14.9162 9.06392C14.7647 8.71117 14.5504 8.44366 14.2734 8.26136C13.9964 8.07907 13.6721 7.98793 13.3004 7.98793C12.9287 7.98793 12.6044 8.07907 12.3274 8.26136C12.0504 8.44366 11.835 8.71117 11.6811 9.06392C11.5296 9.41667 11.4538 9.84991 11.4538 10.3636C11.4538 10.8774 11.5296 11.3106 11.6811 11.6634C11.835 12.0161 12.0504 12.2836 12.3274 12.4659C12.6044 12.6482 12.9287 12.7393 13.3004 12.7393C13.6721 12.7393 13.9964 12.6482 14.2734 12.4659C14.5504 12.2836 14.7647 12.0161 14.9162 11.6634C15.0701 11.3106 15.147 10.8774 15.147 10.3636ZM19.2086 14L17.1277 6.72727H18.8074L20.0112 11.7805H20.0716L21.3997 6.72727H22.8379L24.1625 11.7912H24.2264L25.4302 6.72727H27.1099L25.0289 14H23.5304L22.1454 9.24503H22.0886L20.7072 14H19.2086Z" fill="#BDDFFF"/>
</svg>
