<svg width="34" height="20" viewBox="0 0 34 20" fill="none" xmlns="http://www.w3.org/2000/svg">
<rect width="34" height="20" rx="4" fill="#D62828"/>
<path d="M4.6321 14V6.72727H6.16974V9.72798H9.29119V6.72727H10.8253V14H9.29119V10.9957H6.16974V14H4.6321ZM13.6307 6.72727V14H12.093V6.72727H13.6307ZM19.7182 9.07812C19.6685 8.9053 19.5987 8.7526 19.5087 8.62003C19.4187 8.48509 19.3087 8.37145 19.1784 8.27912C19.0506 8.18442 18.9038 8.11222 18.7381 8.0625C18.5748 8.01278 18.3936 7.98793 18.1948 7.98793C17.8231 7.98793 17.4964 8.08026 17.2147 8.26491C16.9353 8.44957 16.7175 8.71828 16.5613 9.07102C16.405 9.4214 16.3269 9.84991 16.3269 10.3565C16.3269 10.8632 16.4038 11.294 16.5577 11.6491C16.7116 12.0043 16.9294 12.2753 17.2111 12.4624C17.4928 12.647 17.8255 12.7393 18.209 12.7393C18.557 12.7393 18.8541 12.6778 19.1003 12.5547C19.3489 12.4292 19.5383 12.2528 19.6685 12.0256C19.8011 11.7983 19.8674 11.5296 19.8674 11.2195L20.1799 11.2656H18.3049V10.108H21.3482V11.0241C21.3482 11.6634 21.2132 12.2126 20.9434 12.6719C20.6735 13.1288 20.3018 13.4815 19.8283 13.7301C19.3548 13.9763 18.8127 14.0994 18.2019 14.0994C17.5201 14.0994 16.9211 13.9491 16.405 13.6484C15.8889 13.3454 15.4864 12.9157 15.1976 12.3594C14.9112 11.8007 14.7679 11.1378 14.7679 10.3707C14.7679 9.78125 14.8532 9.25568 15.0236 8.79403C15.1964 8.33002 15.4379 7.93703 15.748 7.61506C16.0582 7.29309 16.4192 7.04806 16.8311 6.87997C17.2431 6.71188 17.6893 6.62784 18.1699 6.62784C18.5819 6.62784 18.9654 6.68821 19.3205 6.80895C19.6756 6.92732 19.9905 7.09541 20.2651 7.31321C20.5421 7.53101 20.7682 7.79025 20.9434 8.09091C21.1185 8.3892 21.231 8.71828 21.2807 9.07812H19.7182ZM22.5032 14V6.72727H24.0408V9.72798H27.1623V6.72727H28.6964V14H27.1623V10.9957H24.0408V14H22.5032Z" fill="#FFDDDD"/>
</svg>
