<svg width="521" height="236" viewBox="0 0 521 236" fill="none" xmlns="http://www.w3.org/2000/svg">
<path d="M505.067 167.898C473.356 227.709 418.16 236 324.956 236C231.751 236 176.502 201.534 107.059 213.827C67.3578 220.856 0 213.827 0 152.852C0 44.595 71.9459 -35.0711 176.502 15.6463C294.48 72.8747 347.464 -4.14952 445.662 15.6463C526.198 31.8817 535.295 110.883 505.067 167.898Z" fill="#BDDFFF"/>
<path d="M109.2 146C108.987 146 108.88 145.867 108.88 145.6V100H98.48C98.2133 100 98.08 99.8667 98.08 99.6L98.16 90.64C98.16 90.4267 98.2667 90.32 98.48 90.32H128.88C129.147 90.32 129.28 90.4267 129.28 90.64V99.6C129.28 99.8667 129.173 100 128.96 100H118.48L118.56 145.6C118.56 145.867 118.453 146 118.24 146H109.2Z" fill="#0062F4"/>
<path d="M126.839 145.6L136.759 90.64C136.813 90.4267 136.946 90.32 137.159 90.32H148.759C148.973 90.32 149.106 90.4267 149.159 90.64L158.679 145.6C158.733 145.867 158.626 146 158.359 146H149.479C149.266 146 149.133 145.867 149.079 145.6L148.199 139.76H137.319L136.439 145.6C136.386 145.867 136.253 146 136.039 146H127.159C126.946 146 126.839 145.867 126.839 145.6ZM138.919 131.2H146.599L143.319 108.72L142.839 105.76L142.519 108.72L138.919 131.2Z" fill="#0062F4"/>
<path d="M175.738 146.8C172.858 146.8 170.218 146.08 167.818 144.64C165.471 143.147 163.577 141.2 162.137 138.8C160.751 136.347 160.057 133.653 160.057 130.72V127.04C160.057 126.773 160.191 126.64 160.458 126.64H169.417C169.631 126.64 169.738 126.773 169.738 127.04V130.72C169.738 132.48 170.324 134 171.497 135.28C172.671 136.507 174.084 137.12 175.738 137.12C177.391 137.12 178.804 136.48 179.978 135.2C181.151 133.92 181.738 132.427 181.738 130.72C181.738 128.747 180.458 127.04 177.898 125.6C177.044 125.12 175.711 124.373 173.898 123.36C172.084 122.347 170.377 121.387 168.777 120.48C165.844 118.773 163.657 116.64 162.217 114.08C160.831 111.467 160.137 108.533 160.137 105.28C160.137 102.293 160.858 99.6267 162.298 97.28C163.738 94.88 165.631 92.9867 167.977 91.6C170.377 90.2133 172.964 89.52 175.738 89.52C178.564 89.52 181.151 90.24 183.497 91.68C185.897 93.0667 187.791 94.96 189.178 97.36C190.618 99.7067 191.338 102.347 191.338 105.28V111.84C191.338 112.053 191.231 112.16 191.018 112.16H182.057C181.844 112.16 181.738 112.053 181.738 111.84L181.658 105.28C181.658 103.413 181.071 101.893 179.898 100.72C178.724 99.5467 177.338 98.96 175.738 98.96C174.084 98.96 172.671 99.6 171.497 100.88C170.324 102.107 169.738 103.573 169.738 105.28C169.738 107.04 170.111 108.507 170.857 109.68C171.604 110.853 172.964 111.973 174.938 113.04C175.204 113.2 175.711 113.493 176.458 113.92C177.258 114.293 178.111 114.747 179.018 115.28C179.924 115.76 180.724 116.187 181.417 116.56C182.164 116.933 182.617 117.173 182.777 117.28C185.444 118.773 187.551 120.613 189.098 122.8C190.644 124.933 191.417 127.573 191.417 130.72C191.417 133.76 190.698 136.507 189.258 138.96C187.871 141.36 185.977 143.28 183.577 144.72C181.231 146.107 178.618 146.8 175.738 146.8Z" fill="#0062F4"/>
<path d="M197.301 146C197.088 146 196.981 145.867 196.981 145.6L197.141 90.72C197.141 90.4533 197.248 90.32 197.461 90.32H206.421C206.635 90.32 206.741 90.4533 206.741 90.72V109.68L219.301 90.64C219.461 90.4267 219.648 90.32 219.861 90.32H229.061C229.275 90.32 229.328 90.4267 229.221 90.64L215.381 112.72L230.901 145.68C231.008 145.893 230.875 146 230.501 146H220.741C220.475 146 220.315 145.893 220.261 145.68L209.461 122.16L206.661 126.56V145.6C206.661 145.867 206.555 146 206.341 146H197.301Z" fill="#0062F4"/>
<path d="M246.676 146C246.463 146 246.356 145.867 246.356 145.6L246.516 90.64C246.516 90.4267 246.623 90.32 246.836 90.32H262.196C265.236 90.32 267.956 91.0667 270.356 92.56C272.756 94 274.65 95.92 276.036 98.32C277.423 100.72 278.116 103.333 278.116 106.16C278.116 108.453 277.583 110.587 276.516 112.56C275.503 114.533 274.276 116.133 272.836 117.36C274.383 118.907 275.583 120.693 276.436 122.72C277.29 124.747 277.716 126.88 277.716 129.12C277.716 132.213 276.97 135.04 275.476 137.6C273.983 140.16 271.956 142.213 269.396 143.76C266.89 145.253 264.09 146 260.996 146H246.676ZM256.116 112.4H262.196C264.063 112.4 265.556 111.76 266.676 110.48C267.85 109.147 268.436 107.707 268.436 106.16C268.436 104.453 267.823 102.987 266.596 101.76C265.37 100.48 263.903 99.84 262.196 99.84H256.116V112.4ZM256.036 136.24H260.996C262.916 136.24 264.57 135.547 265.956 134.16C267.343 132.72 268.036 131.04 268.036 129.12C268.036 127.2 267.343 125.547 265.956 124.16C264.57 122.773 262.916 122.08 260.996 122.08H256.116L256.036 136.24Z" fill="#0062F4"/>
<path d="M298.186 146.8C295.359 146.8 292.746 146.08 290.346 144.64C287.946 143.147 286.026 141.173 284.586 138.72C283.199 136.267 282.506 133.573 282.506 130.64L282.666 90.64C282.666 90.4267 282.772 90.32 282.986 90.32H291.946C292.159 90.32 292.266 90.4267 292.266 90.64V130.64C292.266 132.453 292.826 134 293.946 135.28C295.119 136.507 296.532 137.12 298.186 137.12C299.892 137.12 301.306 136.507 302.426 135.28C303.599 134 304.186 132.453 304.186 130.64V90.64C304.186 90.4267 304.292 90.32 304.506 90.32H313.466C313.679 90.32 313.786 90.4267 313.786 90.64L313.946 130.64C313.946 133.627 313.226 136.347 311.786 138.8C310.399 141.253 308.506 143.2 306.106 144.64C303.759 146.08 301.119 146.8 298.186 146.8Z" fill="#0062F4"/>
<path d="M320.663 146C320.396 146 320.263 145.867 320.263 145.6L320.422 90.64C320.422 90.4267 320.529 90.32 320.742 90.32L335.703 90.24C338.636 90.1867 341.303 90.88 343.703 92.32C346.156 93.76 348.103 95.7067 349.543 98.16C350.983 100.56 351.703 103.227 351.703 106.16V129.12C351.703 132.213 350.956 135.04 349.462 137.6C347.969 140.107 345.969 142.107 343.462 143.6C340.956 145.093 338.129 145.867 334.983 145.92L320.663 146ZM330.022 136.16H334.983C336.956 136.16 338.609 135.467 339.943 134.08C341.329 132.693 342.022 131.04 342.022 129.12V106.08C342.022 104.373 341.383 102.907 340.103 101.68C338.876 100.4 337.409 99.7867 335.703 99.84L330.103 99.92L330.022 136.16Z" fill="#0062F4"/>
<path d="M358.397 146C358.13 146 357.997 145.867 357.997 145.6L358.157 90.64C358.157 90.4267 358.264 90.32 358.477 90.32L373.437 90.24C376.37 90.1867 379.037 90.88 381.437 92.32C383.89 93.76 385.837 95.7067 387.277 98.16C388.717 100.56 389.437 103.227 389.437 106.16V129.12C389.437 132.213 388.69 135.04 387.197 137.6C385.704 140.107 383.704 142.107 381.197 143.6C378.69 145.093 375.864 145.867 372.717 145.92L358.397 146ZM367.757 136.16H372.717C374.69 136.16 376.344 135.467 377.677 134.08C379.064 132.693 379.757 131.04 379.757 129.12V106.08C379.757 104.373 379.117 102.907 377.837 101.68C376.61 100.4 375.144 99.7867 373.437 99.84L367.837 99.92L367.757 136.16Z" fill="#0062F4"/>
<path d="M401.374 146C401.214 146 401.134 145.893 401.134 145.68L401.214 122.96L390.494 90.64C390.441 90.4267 390.521 90.32 390.734 90.32H399.614C399.881 90.32 400.041 90.4267 400.094 90.64L406.014 112.16L412.014 90.64C412.068 90.4267 412.201 90.32 412.414 90.32H421.374C421.588 90.32 421.668 90.4267 421.614 90.64L410.814 122.64L410.894 145.68C410.894 145.893 410.788 146 410.574 146H401.374Z" fill="#0062F4"/>
</svg>
